<svg width="72" height="72" viewBox="0 0 72 72" fill="none" xmlns="http://www.w3.org/2000/svg">
<circle cx="36" cy="36" r="36" fill="#433041"/>
<path d="M30.4699 41.5107C30.1463 41.5107 29.884 41.7731 29.884 42.0967V49.3046C29.884 49.6799 29.5787 49.9851 29.2035 49.9851H25.9332C22.9449 49.9851 20.5137 52.4167 20.5137 55.4054V55.414C20.5137 55.7376 20.776 56 21.0996 56C21.4232 56 21.6855 55.7376 21.6855 55.414V55.4054C21.6855 53.0629 23.591 51.157 25.9332 51.157H29.2035C30.2249 51.157 31.0559 50.3261 31.0559 49.3046V42.0967C31.0559 41.7731 30.7935 41.5107 30.4699 41.5107Z" fill="white"/>
<path d="M53.262 51.5746C52.2362 50.5496 50.873 49.9851 49.4237 49.9851H41.3534C40.9777 49.9851 40.6721 49.6799 40.6721 49.3047V46.2187C40.6721 45.8431 40.9778 45.5375 41.3534 45.5375H45.7581C47.357 45.5375 48.6762 44.3376 48.8265 42.7466L49.1863 38.9492H49.6666C50.2424 38.9492 50.7659 38.6564 51.0671 38.1659C51.3683 37.6755 51.3927 37.0759 51.1322 36.5623L49.9777 34.2852L49.9799 31.0477C49.9799 24.663 44.7854 19.4673 38.4003 19.4657C36.2743 19.4657 34.2047 20.0437 32.4018 21.136H31.087V20.3899C31.087 20.2726 31.1272 20.1567 31.2004 20.0638C31.5511 19.6174 31.7365 19.0817 31.7365 18.5146C31.7365 17.8282 31.4509 17.1636 30.9531 16.6908C30.4482 16.2114 29.7864 15.9671 29.0889 16.0036C27.7775 16.0716 26.7316 17.1543 26.7079 18.4685C26.6975 19.0463 26.8889 19.6142 27.2469 20.0679C27.3178 20.1578 27.3569 20.2722 27.3569 20.39V21.722C27.3569 22.0456 27.6193 22.3079 27.9429 22.3079C28.2665 22.3079 28.5288 22.0456 28.5288 21.722V20.39C28.5288 20.01 28.4002 19.6378 28.1669 19.342C27.9733 19.0968 27.874 18.802 27.8796 18.4897C27.8921 17.7998 28.4618 17.2096 29.1496 17.1739C29.5223 17.1543 29.8766 17.2848 30.1462 17.5407C30.4161 17.7969 30.5646 18.1428 30.5646 18.5146C30.5646 18.8166 30.4658 19.102 30.2789 19.3398C30.0443 19.6383 29.9151 20.0113 29.9151 20.39V21.722C29.9151 22.0456 30.1775 22.3079 30.5011 22.3079H34.6564C34.84 22.3079 34.9893 22.4576 34.9893 22.6415V25.7915H34.2432C34.1255 25.7915 34.0109 25.7523 33.9209 25.6814C33.4667 25.3231 32.8991 25.1316 32.3217 25.1424C31.0069 25.166 29.9241 26.2121 29.8565 27.5236C29.8202 28.2208 30.0643 28.8828 30.5436 29.3877C31.0163 29.8856 31.6811 30.1712 32.3674 30.1712C32.9343 30.1712 33.4701 29.9858 33.9177 29.6343C34.0103 29.5613 34.1258 29.5211 34.2432 29.5211H34.9893V33.5102C34.9893 33.6937 34.84 33.843 34.6564 33.843H30.5011C30.1775 33.843 29.9151 34.1053 29.9151 34.4289V35.7611C29.9151 36.1398 30.0443 36.5127 30.2789 36.8112C30.4658 37.0491 30.5646 37.3344 30.5646 37.6364C30.5743 38.3069 29.9587 39.0265 29.1496 38.9772C28.4618 38.9415 27.892 38.3512 27.8796 37.6613C27.874 37.349 27.9733 37.0543 28.1669 36.8091C28.4003 36.5132 28.5288 36.1411 28.5288 35.7611V34.4289C28.5334 34.2028 28.309 33.8641 27.9429 33.843H23.7878C23.6043 33.843 23.455 33.6937 23.455 33.5102V28.935C23.403 28.6944 23.3101 28.3632 22.8538 28.3495H21.5364C21.1577 28.3495 20.7848 28.4786 20.4862 28.7132C20.2484 28.9002 19.963 28.9989 19.6611 28.9989C19.2892 28.9989 18.9434 28.8503 18.6872 28.5806C18.4312 28.311 18.3009 27.957 18.3203 27.5839C18.356 26.8961 18.9463 26.3263 19.6362 26.3139C19.9489 26.3089 20.2433 26.4076 20.4885 26.6011C20.7843 26.8345 21.1565 26.9631 21.5365 26.9631H22.869C23.1926 26.9631 23.455 26.7007 23.455 26.3771V22.6414C23.455 22.4575 23.6043 22.3078 23.7878 22.3078H25.2002C25.5238 22.3078 25.7862 22.0455 25.7862 21.7219C25.7862 21.3983 25.5238 21.136 25.2002 21.136H23.7878C22.9581 21.136 22.2831 21.8114 22.2831 22.6414V25.7912H21.5364C21.4187 25.7912 21.3043 25.7521 21.2144 25.6811C20.7607 25.3231 20.1944 25.1309 19.615 25.1422C18.3008 25.166 17.218 26.2117 17.15 27.5232C17.1138 28.2205 17.358 28.8825 17.8373 29.3874C18.31 29.8852 18.9748 30.1708 19.661 30.1708C20.2281 30.1708 20.7638 29.9854 21.2102 29.6347C21.3032 29.5616 21.4191 29.5213 21.5364 29.5213H22.2831V33.5102C22.2831 34.3398 22.9581 35.0148 23.7878 35.0148H27.3569V35.7611C27.3569 35.8787 27.3179 35.9931 27.2469 36.0831C26.8889 36.5367 26.6975 37.1047 26.7079 37.6825C26.7316 38.9967 27.7774 40.0794 29.0889 40.1475C30.4006 40.255 31.7674 39.0766 31.7365 37.6364C31.7365 37.0693 31.5511 36.5336 31.2004 36.0872C31.1272 35.9942 31.087 35.8784 31.087 35.761V35.0148H34.6564C35.4861 35.0148 36.1611 34.3398 36.1611 33.5101V28.9351C36.1611 28.6115 35.8988 28.3492 35.5752 28.3492H34.2432C33.8637 28.3492 33.4904 28.4788 33.193 28.7133C32.9549 28.9003 32.6693 28.9992 32.3674 28.9992C31.9955 28.9992 31.6496 28.8506 31.3934 28.5807C31.1375 28.3112 31.0073 27.9574 31.0268 27.584C31.0622 26.896 31.6525 26.3263 32.3431 26.3138C32.6539 26.3081 32.9493 26.4075 33.1956 26.6017C33.4918 26.8348 33.8638 26.9631 34.2432 26.9631H35.5752C35.8988 26.9631 36.1611 26.7008 36.1611 26.3772V22.6413C36.1611 21.9467 35.6879 21.3621 35.0474 21.1892C36.1192 20.8262 37.2502 20.6374 38.4 20.6374C44.139 20.6389 48.808 25.3088 48.808 31.0471L48.8056 34.4245C48.8056 34.5166 48.8273 34.6076 48.869 34.6898L50.087 37.0923C50.1949 37.3049 50.11 37.485 50.0686 37.5527C50.0271 37.6202 49.9049 37.7773 49.6667 37.7773H48.6534C48.3512 37.7773 48.0985 38.0071 48.0701 38.3079L47.6599 42.6361C47.5667 43.622 46.7492 44.3655 45.7581 44.3655H41.3535C40.3316 44.3655 39.5003 45.1968 39.5003 46.2186V49.3045C39.5003 50.3259 40.3317 51.1568 41.3535 51.1568H49.4238C50.5602 51.1568 51.6292 51.5996 52.4337 52.4033C53.2379 53.2075 53.6808 54.2767 53.6808 55.4139C53.6808 55.7375 53.9431 55.9999 54.2667 55.9999C54.5903 55.9999 54.8527 55.7375 54.8527 55.4139C54.8526 53.9638 54.2878 52.6003 53.262 51.5746Z" fill="white"/>
<path d="M44.4017 34.6021C44.7938 34.6021 45.2538 34.5121 45.7602 34.249C46.0271 34.1103 46.1607 33.7906 46.0512 33.5105C45.9216 33.1787 45.5376 33.0419 45.2316 33.2031C44.3583 33.6627 43.7959 33.2943 43.7347 33.2509L43.5844 33.176C43.3332 33.0507 43.0285 33.1209 42.8573 33.3434C42.6359 33.6313 42.7258 34.0504 43.0471 34.2197C43.4455 34.4296 43.8585 34.6021 44.4017 34.6021Z" fill="white"/>
</svg>
