<svg width="72" height="72" viewBox="0 0 72 72" fill="none" xmlns="http://www.w3.org/2000/svg">
<circle cx="36" cy="36" r="36" fill="#433041"/>
<g clip-path="url(#clip0_2009_1235)">
<path d="M54.8407 22.4624L48.0645 16.8295C47.953 16.7367 47.8092 16.692 47.6645 16.7055C47.52 16.7188 47.3867 16.7891 47.2941 16.9008L45.3491 19.2444C45.308 19.2305 45.2662 19.2177 45.224 19.2061C45.2204 19.2051 45.2168 19.2041 45.2132 19.2032L43.2986 18.717C43.2873 18.7141 43.2761 18.7116 43.2647 18.7095C41.6628 18.4089 40.3612 19.2728 40.0259 20.8582C39.9796 21.077 39.9296 21.3173 39.8762 21.5738C39.4723 23.5144 38.8654 26.4311 38.255 27.7904C36.8024 29.5406 35.9164 30.5656 35.6074 30.8529C35.3358 30.8838 35.1038 30.9068 34.8955 30.9275C34.2267 30.9937 33.8231 31.0336 33.3569 31.2196C32.3135 31.6359 30.735 32.8496 29.3423 33.9205C28.8915 34.2672 28.4658 34.5945 28.1202 34.8452C27.1091 35.5788 26.8512 36.9694 27.533 38.0109C27.9518 38.6509 28.4927 38.8961 29.0561 38.937L20.8537 48.7732C20.7607 48.8847 20.7159 49.0286 20.7291 49.1732C20.7423 49.3178 20.8124 49.4512 20.9241 49.544L27.6927 55.1706C27.7913 55.2526 27.9151 55.297 28.0423 55.297C28.059 55.297 28.0759 55.2962 28.0927 55.2946C28.2373 55.2813 28.3705 55.2109 28.4631 55.0993L30.5371 52.5999C30.9102 52.9371 31.387 53.1216 31.8909 53.1216H31.8923C32.4051 53.1213 32.8896 52.93 33.2653 52.5814C33.3089 52.6365 33.3552 52.6895 33.4044 52.7403C33.7945 53.1434 34.3066 53.3654 34.8464 53.3654H34.8479C35.9205 53.3646 36.8005 52.5257 36.8673 51.4701C37.1526 51.6194 37.4709 51.6984 37.801 51.6984H37.8023C38.3413 51.698 38.8492 51.4867 39.2323 51.1033C39.6154 50.7198 39.8262 50.2116 39.8258 49.6725L39.8251 48.6952C40.1093 48.843 40.426 48.9214 40.7544 48.9214H40.7559C41.2951 48.9211 41.8029 48.7098 42.186 48.3263C42.5691 47.9428 42.78 47.4346 42.7795 46.8985L42.8228 37.8L43.851 36.5611L44.0398 36.723C44.4172 37.0466 44.8813 37.2051 45.3434 37.2051C45.9085 37.2051 46.4705 36.968 46.8664 36.5064C46.8724 36.4994 46.8783 36.4922 46.884 36.4849C47.2398 36.0247 47.3894 35.4942 47.3414 34.9895C47.8723 34.9631 48.392 34.7277 48.7645 34.2934C48.7705 34.2863 48.7764 34.2791 48.7821 34.2718C49.1384 33.8109 49.2879 33.2797 49.2395 32.7744C49.2577 32.7734 49.2758 32.7737 49.2941 32.7723C49.8291 32.7313 50.3151 32.4855 50.6627 32.0803C50.6688 32.0733 50.6745 32.0661 50.6803 32.0588C51.033 31.6027 51.1814 31.0694 51.135 30.5634C51.6669 30.5378 52.1877 30.3025 52.5609 29.8673C53.2804 29.0284 53.1834 27.7603 52.3444 27.0406L51.9984 26.7439L54.9125 23.2325C55.1047 22.9999 55.0728 22.6554 54.8407 22.4624ZM40.947 21.7966C41.0002 21.5414 41.0498 21.3023 41.0959 21.0845C41.1673 20.7469 41.4779 19.742 42.6305 19.742C42.7586 19.742 42.8972 19.7544 43.047 19.7816L44.9378 20.2617C45.247 20.3482 45.5054 20.5511 45.6655 20.8333C45.8266 21.1169 45.868 21.4445 45.7823 21.7557C45.6041 22.402 44.9333 22.7828 44.2874 22.6048L43.1725 22.2968C42.9645 22.2394 42.7421 22.3095 42.6048 22.4761C42.4937 22.6108 42.2545 22.9054 41.9276 23.3077C41.2725 24.114 40.667 24.8567 40.1109 25.5363C40.4334 24.2646 40.7212 22.8816 40.947 21.7966ZM27.9709 53.9796L22.0445 49.053L29.8673 39.672L29.8662 51.098C29.8663 51.2748 29.8891 51.448 29.9332 51.6148L27.9709 53.9796ZM46.0268 35.8045C45.8701 35.9818 45.653 36.0893 45.4138 36.1077C45.1703 36.126 44.9348 36.05 44.7514 35.8927L43.2177 34.5773C42.7695 34.1928 42.8491 33.6526 43.1283 33.2827C43.4559 32.9117 44.0242 32.8707 44.402 33.193L45.9373 34.5098L45.9379 34.5104C46.3856 34.8949 46.3059 35.4348 46.0268 35.8045ZM47.9249 33.5913C47.5966 33.963 47.0273 34.0036 46.6494 33.6795L44.5002 31.8362C44.0518 31.4516 44.1315 30.9113 44.4107 30.5414C44.739 30.1701 45.3075 30.1295 45.6852 30.4525C45.6855 30.4527 45.6858 30.453 45.6861 30.4533L47.8354 32.2966C47.8354 32.2966 47.8355 32.2967 47.8355 32.2967C47.8355 32.2968 47.8356 32.2968 47.8357 32.2969C48.2838 32.6815 48.2041 33.2216 47.9249 33.5913ZM49.823 31.3784C49.6662 31.5557 49.4491 31.6632 49.2099 31.6816C48.9667 31.7004 48.731 31.6239 48.5475 31.4665L46.3983 29.6231C45.9499 29.2386 46.0296 28.6984 46.3088 28.3284C46.6367 27.9573 47.2055 27.9166 47.5831 28.2392C47.5833 28.2394 47.5834 28.2395 47.5837 28.2396C47.5839 28.2398 47.5841 28.24 47.5844 28.2402L49.7336 30.0836C49.7345 30.0844 49.7355 30.0851 49.7366 30.0859C49.7376 30.0868 49.7384 30.0878 49.7395 30.0887C50.1668 30.4447 50.1052 31.004 49.823 31.3784ZM51.7301 29.155C51.5727 29.3385 51.3518 29.4498 51.1081 29.4684C50.8639 29.4872 50.6291 29.4108 50.4456 29.2534L48.2964 27.4099C47.848 27.0254 47.9277 26.4852 48.2069 26.1153C48.3636 25.9379 48.5808 25.8304 48.8199 25.812C49.0633 25.7935 49.2989 25.8698 49.4824 26.0271L51.6317 27.8705C52.0065 28.192 52.0516 28.7802 51.7301 29.155ZM51.1675 26.0315L50.1945 25.197C49.7893 24.8495 49.2713 24.6808 48.7365 24.7216C48.2014 24.7626 47.7154 25.0084 47.3678 25.4135C47.3618 25.4205 47.356 25.4277 47.3502 25.435C46.9941 25.8955 46.8446 26.4263 46.8927 26.9312C46.3616 26.9575 45.842 27.1924 45.4696 27.6266C45.4636 27.6336 45.4577 27.6408 45.452 27.6481C45.0961 28.1086 44.9465 28.6392 44.9945 29.144C44.4636 29.1703 43.944 29.4052 43.5716 29.8395C43.5655 29.8466 43.5597 29.8538 43.554 29.8611C43.0514 30.5113 42.9596 31.3011 43.2557 31.9609C42.8917 32.0652 42.5533 32.2727 42.2891 32.5807C42.2831 32.5877 42.2773 32.5949 42.2716 32.6023C41.5701 33.5097 41.6685 34.6895 42.5056 35.4073L43.0202 35.8487L41.8556 37.252C41.7748 37.3495 41.7302 37.472 41.7296 37.5987L41.6855 46.8962C41.6857 47.1431 41.5886 47.3764 41.412 47.5532C41.2354 47.7299 41.0021 47.8273 40.7543 47.8275C40.5077 47.8275 40.2745 47.7304 40.098 47.5541C39.9251 47.3815 39.8281 47.1546 39.8237 46.9138L39.8221 44.5059C39.8219 44.2041 39.5771 43.9595 39.2748 43.9595C38.9729 43.9597 38.7282 44.2047 38.7284 44.5067L38.7318 49.6731C38.732 49.9201 38.6348 50.1534 38.4583 50.3302C38.2816 50.507 38.0484 50.6044 37.8008 50.6045C37.5541 50.6045 37.3208 50.5074 37.1442 50.331C36.9727 50.1598 36.8759 49.9352 36.8701 49.6964L36.867 44.9768C36.8667 44.6749 36.622 44.4303 36.3197 44.4303C36.0177 44.4305 35.773 44.6755 35.7732 44.9776L35.7775 51.34C35.7779 51.8532 35.3605 52.271 34.8463 52.2714C34.4352 52.2718 34.0713 51.9608 33.947 51.5789C33.8938 51.4152 33.9159 51.2629 33.9157 51.0952L33.9117 45.1808C33.9115 44.8789 33.6667 44.6343 33.3645 44.6343C33.0625 44.6345 32.8177 44.8795 32.818 45.1816L32.822 51.0961C32.8224 51.342 32.7219 51.5795 32.5484 51.7531C32.3719 51.9299 32.1385 52.0273 31.8909 52.0275C31.6441 52.0275 31.411 51.9304 31.2344 51.754C31.0576 51.5774 30.9602 51.3442 30.96 51.0976L30.9612 38.1747C30.9623 38.1282 30.9573 38.0811 30.9461 38.0341C30.9396 38.0071 30.9311 37.9807 30.9207 37.9552C30.8792 37.8533 30.8097 37.7699 30.7236 37.7109C30.6952 37.6913 30.6646 37.6745 30.6323 37.6604C30.5132 37.6085 30.3749 37.5987 30.2419 37.643C28.9962 38.057 28.6827 37.7699 28.4483 37.4118C28.0866 36.8592 28.2247 36.1206 28.7627 35.7303C29.1205 35.4706 29.5521 35.1388 30.0091 34.7873C31.2792 33.8107 32.8598 32.5952 33.7622 32.2352C34.0848 32.1066 34.3918 32.0761 35.0034 32.0156C35.2515 31.9911 35.5327 31.9632 35.8763 31.9225C36.1537 31.8896 36.2803 31.8746 38.9374 28.6823C40.3136 27.0288 43.106 23.5918 43.225 23.4457L43.9966 23.6589C45.2248 23.9974 46.4984 23.2738 46.8368 22.0461C47.0002 21.4532 46.9221 20.8306 46.6168 20.293C46.5216 20.1253 46.408 19.9724 46.2788 19.8365L47.7863 18.0202L53.7215 22.954L51.1675 26.0315ZM21.3878 38.4791C21.6898 38.4791 21.9347 38.2343 21.9347 37.9323C21.9347 36.0955 23.429 34.6012 25.2658 34.6012C25.5678 34.6012 25.8127 34.3563 25.8127 34.0543C25.8127 33.7523 25.5678 33.5074 25.2658 33.5074C23.429 33.5074 21.9347 32.0131 21.9347 30.1763C21.9347 29.8742 21.6898 29.6294 21.3878 29.6294C21.0858 29.6294 20.8409 29.8742 20.8409 30.1763C20.8409 32.013 19.3466 33.5074 17.5098 33.5074C17.2077 33.5074 16.9629 33.7523 16.9629 34.0543C16.9629 34.3563 17.2077 34.6012 17.5098 34.6012C19.3466 34.6012 20.8409 36.0955 20.8409 37.9323C20.8409 38.2343 21.0858 38.4791 21.3878 38.4791ZM19.6393 34.0543C20.3744 33.649 20.9826 33.0408 21.3879 32.3057C21.7932 33.0408 22.4014 33.6491 23.1365 34.0543C22.4014 34.4595 21.7932 35.0678 21.3879 35.8029C20.9826 35.0678 20.3744 34.4595 19.6393 34.0543ZM17.5098 21.6748C19.3466 21.6748 20.841 23.1691 20.841 25.0059C20.841 25.308 21.0859 25.5528 21.3879 25.5528C21.6899 25.5528 21.9348 25.308 21.9348 25.0059C21.9348 23.1691 23.4291 21.6748 25.2659 21.6748C25.5679 21.6748 25.8127 21.43 25.8127 21.128C25.8127 20.8259 25.5679 20.5811 25.2659 20.5811C23.4291 20.5811 21.9348 19.0868 21.9348 17.25C21.9348 16.948 21.6899 16.7031 21.3879 16.7031C21.0859 16.7031 20.841 16.948 20.841 17.25C20.841 19.0868 19.3466 20.5811 17.5098 20.5811C17.2078 20.5811 16.963 20.8259 16.963 21.128C16.963 21.43 17.2078 21.6748 17.5098 21.6748ZM21.3878 19.3794C21.7931 20.1145 22.4013 20.7227 23.1364 21.128C22.4013 21.5333 21.7931 22.1415 21.3878 22.8766C20.9825 22.1415 20.3743 21.5333 19.6392 21.128C20.3744 20.7227 20.9826 20.1145 21.3878 19.3794ZM24.3775 27.7035C24.3775 28.0055 24.6223 28.2504 24.9244 28.2504C26.7612 28.2504 28.2555 29.7447 28.2555 31.5815C28.2555 31.8835 28.5004 32.1284 28.8024 32.1284C29.1045 32.1284 29.3493 31.8835 29.3493 31.5815C29.3493 29.7447 30.8436 28.2504 32.6804 28.2504C32.9824 28.2504 33.2273 28.0055 33.2273 27.7035C33.2273 27.4015 32.9824 27.1566 32.6804 27.1566C30.8436 27.1566 29.3493 25.6623 29.3493 23.8255C29.3493 23.5235 29.1045 23.2787 28.8024 23.2787C28.5004 23.2787 28.2555 23.5235 28.2555 23.8255C28.2555 25.6623 26.7612 27.1566 24.9244 27.1566C24.6223 27.1566 24.3775 27.4015 24.3775 27.7035ZM28.8024 25.9549C29.2077 26.69 29.8159 27.2982 30.551 27.7035C29.8159 28.1088 29.2077 28.717 28.8024 29.4521C28.3971 28.717 27.7889 28.1088 27.0538 27.7035C27.7889 27.2982 28.3971 26.69 28.8024 25.9549Z" fill="white"/>
</g>
<defs>
<clipPath id="clip0_2009_1235">
<rect width="40" height="40" fill="white" transform="translate(16 16)"/>
</clipPath>
</defs>
</svg>
