<svg width="72" height="72" viewBox="0 0 72 72" fill="none" xmlns="http://www.w3.org/2000/svg">
<circle cx="36" cy="36" r="36" fill="#433041"/>
<path d="M46.9386 19.9991C46.6181 19.9465 46.3179 20.1633 46.2656 20.4826C46.2133 20.8019 46.4298 21.1033 46.7491 21.1556C54.57 22.4369 57.4849 32.1181 51.97 37.633L47.5291 42.0741C47.3002 42.3029 47.3002 42.674 47.5291 42.9027C47.7579 43.1315 48.1289 43.1316 48.3578 42.9027L52.7987 38.4617C59.0206 32.2399 55.6953 21.4337 46.9386 19.9991Z" fill="white"/>
<path d="M19.2036 38.4621L30.1055 49.3641C30.8277 50.086 32.0243 49.3004 31.6495 48.35C29.7305 43.4843 31.3607 39.245 31.5027 38.0508C31.5575 37.5876 31.7238 36.8663 31.044 36.2838C30.3149 35.659 29.9562 34.5761 30.1302 33.5248C30.2616 32.7307 30.6714 32.1415 31.2547 31.9083C31.4845 31.8162 32.184 31.5364 32.8942 33.026C33.2405 33.752 34.2485 33.8091 34.6783 33.1328C35.1437 32.4008 36.3194 31.3408 39.2766 30.4475C42.4011 29.5036 43.6931 27.8828 44.214 26.5484C44.6193 27.8549 44.8119 29.6168 43.8501 31.2794C43.4998 31.8851 43.405 32.6294 43.5903 33.3218C43.8394 34.2524 44.3544 35.5703 45.3954 36.6068C44.9286 36.7828 44.476 36.898 44.0822 36.9407C43.5001 37.0038 43.0406 37.4486 42.9648 38.0225C42.9167 38.3876 42.8672 38.8861 42.8755 39.3512C42.7192 39.3755 42.28 39.4006 42.0684 39.8618C41.9189 40.1881 41.9939 40.4627 42.1739 40.7514C42.0094 40.9859 41.8046 41.3209 41.6016 41.7661C41.3461 42.3265 40.6602 42.5807 40.1123 42.2624C37.9929 41.0305 36.0076 41.0522 34.3713 42.3251C32.1415 44.0593 33.2907 48.2725 36.9486 51.6176C37.7359 52.3376 38.9368 52.3202 39.6853 51.5759L46.4243 44.8372C46.6531 44.6083 46.6531 44.2373 46.4243 44.0085C46.1955 43.7798 45.8244 43.7796 45.5957 44.0084L38.8647 50.7393C38.863 50.7409 38.8579 50.746 38.8563 50.7476C38.5547 51.0475 38.0641 51.0497 37.7395 50.7527C34.6504 47.9277 33.5607 44.4402 35.0909 43.2502C36.3362 42.2816 37.8275 42.2901 39.5234 43.2756C40.6573 43.9349 42.1198 43.4547 42.668 42.2524C42.8961 41.7523 43.1206 41.4337 43.2339 41.2883C43.4185 41.052 43.4614 40.7364 43.3564 40.4624C43.7873 40.3885 44.0947 39.9934 44.0582 39.5569C44.0218 39.1206 44.0754 38.5651 44.1267 38.1759C44.1324 38.133 44.1718 38.1098 44.2086 38.1059C44.7308 38.0492 45.2972 37.9031 45.8922 37.6716C46.6534 37.3752 46.853 36.3875 46.2673 35.8206C45.3807 34.9623 44.9378 33.8232 44.7225 33.0188C44.617 32.6248 44.6688 32.2048 44.8646 31.8664C46.1646 29.6191 45.7465 27.279 45.167 25.7115C45.0143 25.2986 44.6186 25.032 44.1767 25.0487C43.7355 25.0653 43.3575 25.3618 43.2357 25.7865C42.915 26.9057 41.9089 28.4281 38.9377 29.3256C35.8893 30.2466 34.4835 31.4097 33.8355 32.2907C33.085 30.8851 31.9961 30.3495 30.8193 30.8202C29.8465 31.2093 29.1738 32.1254 28.9739 33.3336C28.7345 34.7807 29.2478 36.288 30.2815 37.1739C30.443 37.3122 30.3948 37.4405 30.3388 37.913C30.217 38.9377 28.7001 42.9893 30.2198 47.8211L20.0323 37.6334C14.0416 31.6427 18.0689 21.1085 26.7659 21.0259C26.7973 21.0256 26.8283 21.0254 26.8596 21.0254C29.5218 21.0254 32.1227 22.1019 34.008 23.9872L34.0087 23.9865C34.0643 24.0416 34.7057 24.6574 34.7759 24.7177L34.774 24.7197C35.462 25.3777 36.5403 25.3777 37.2286 24.7197C38.4742 23.5288 40.4238 21.4373 44.1663 21.0733C44.4884 21.0419 44.7242 20.7554 44.6928 20.4333C44.6614 20.1112 44.3748 19.876 44.0528 19.9068C39.9309 20.3078 37.729 22.6198 36.4188 23.8726C36.1844 24.0966 35.8179 24.0963 35.5839 23.8726C35.5835 23.8723 35.5832 23.872 35.5829 23.8717C34.694 23.0252 31.8643 19.8101 26.7547 19.854C20.5599 19.9128 15.9479 24.9634 16.0004 30.8264C16.0262 33.7105 17.1638 36.4223 19.2036 38.4621Z" fill="white"/>
</svg>
