<svg width="72" height="72" viewBox="0 0 72 72" fill="none" xmlns="http://www.w3.org/2000/svg">
<circle cx="36" cy="36" r="36" fill="#433041"/>
<path d="M27.875 55.3745H26.625V53.9464C24.7712 53.2614 17.875 50.1801 17.875 42.2495C17.875 33.7845 23.5219 28.457 26.195 26.4101C24.4244 25.8995 23.5 24.487 23.5 22.2495C23.5 19.522 26.0737 16.917 26.1831 16.8076L27.0675 17.6914C27.0444 17.7145 24.75 20.0426 24.75 22.2495C24.75 24.4107 25.7137 25.3745 27.875 25.3745C28.0116 25.3745 28.1445 25.4193 28.2532 25.502C28.3619 25.5848 28.4406 25.7008 28.4771 25.8325C28.5136 25.9641 28.5059 26.1041 28.4553 26.231C28.4047 26.3579 28.314 26.4647 28.1969 26.5351C28.1062 26.5895 19.125 32.1164 19.125 42.2495C19.125 50.412 27.0837 52.8014 27.4225 52.8989C27.5529 52.9363 27.6676 53.0152 27.7492 53.1235C27.8308 53.2319 27.875 53.3638 27.875 53.4995V55.3745Z" fill="white"/>
<path d="M54.1249 55.3752H52.8749C52.8749 49.3752 50.6099 45.3071 48.6124 41.7177C47.3499 39.4502 46.2599 37.4921 46.0049 35.4527C45.5374 31.7134 48.0212 23.494 49.5437 18.9277L50.7312 19.3227C49.5324 22.9184 46.7937 31.6727 47.2462 35.2977C47.4712 37.0959 48.5068 38.9559 49.7055 41.1102C51.6737 44.6477 54.1249 49.0502 54.1249 55.3752Z" fill="white"/>
<path d="M51.151 18.0786L49.9697 17.6711C50.2429 16.878 50.4122 16.4111 50.4122 16.4111L51.5872 16.8386C51.5872 16.8386 51.4191 17.3005 51.151 18.0786Z" fill="white"/>
<path d="M31.625 52.25C29.4 52.25 27.2249 51.5902 25.3748 50.354C23.5248 49.1179 22.0828 47.3609 21.2314 45.3052C20.3799 43.2495 20.1571 40.9875 20.5912 38.8052C21.0253 36.623 22.0967 34.6184 23.6701 33.0451C25.2434 31.4717 27.248 30.4003 29.4302 29.9662C31.6125 29.5321 33.8745 29.7549 35.9302 30.6064C37.9859 31.4578 39.7429 32.8998 40.979 34.7498C42.2152 36.5999 42.875 38.775 42.875 41C42.8715 43.9826 41.6852 46.8421 39.5761 48.9511C37.4671 51.0602 34.6076 52.2465 31.625 52.25ZM31.625 31C29.6472 31 27.7138 31.5865 26.0693 32.6853C24.4248 33.7841 23.1431 35.3459 22.3862 37.1732C21.6293 39.0004 21.4313 41.0111 21.8172 42.9509C22.203 44.8907 23.1554 46.6725 24.5539 48.0711C25.9525 49.4696 27.7343 50.422 29.6741 50.8079C31.6139 51.1937 33.6246 50.9957 35.4518 50.2388C37.2791 49.4819 38.8409 48.2002 39.9397 46.5557C41.0385 44.9112 41.625 42.9778 41.625 41C41.6219 38.3488 40.5673 35.8071 38.6926 33.9324C36.8179 32.0577 34.2762 31.0031 31.625 31Z" fill="white"/>
<path d="M34.75 41C33.2587 41 29.75 39.1525 29.75 36.625C29.75 35.4647 30.2109 34.3519 31.0314 33.5314C31.8519 32.7109 32.9647 32.25 34.125 32.25C35.2853 32.25 36.3981 32.7109 37.2186 33.5314C38.0391 34.3519 38.5 35.4647 38.5 36.625C38.5 38.9812 36.4375 41 34.75 41ZM34.125 33.5C33.2965 33.501 32.5022 33.8306 31.9164 34.4164C31.3306 35.0022 31.001 35.7965 31 36.625C31 38.23 33.7287 39.75 34.75 39.75C35.5837 39.75 37.25 38.3994 37.25 36.625C37.249 35.7965 36.9194 35.0022 36.3336 34.4164C35.7478 33.8306 34.9535 33.501 34.125 33.5Z" fill="white"/>
<path d="M34.1254 49.7501C32.4873 49.7501 30.9767 48.2851 30.2723 47.4839L28.9598 48.4695C28.6497 48.7026 28.275 48.8338 27.8872 48.845C27.4995 48.8562 27.1178 48.7468 26.7948 48.532L25.6554 47.7726C25.5643 47.7119 25.4907 47.6283 25.442 47.5301C25.3933 47.432 25.3713 47.3228 25.3782 47.2135C25.385 47.1042 25.4205 46.9986 25.481 46.9073C25.5415 46.8159 25.6249 46.7421 25.7229 46.6932L26.841 46.1345L28.1717 44.3607C28.3768 44.0848 28.6543 43.8711 28.9734 43.7432C29.2926 43.6154 29.6409 43.5784 29.9798 43.6364L31.8285 43.8907L29.496 42.5564C29.1314 42.3487 28.8641 42.0046 28.7531 41.5999C28.6421 41.1952 28.6965 40.7629 28.9042 40.3982C29.1119 40.0336 29.4559 39.7663 29.8606 39.6553C30.2654 39.5443 30.6976 39.5987 31.0623 39.8064L33.4898 40.9314L34.1254 40.6139V40.3751H35.3754V41.0001C35.376 41.1168 35.344 41.2313 35.2829 41.3307C35.2218 41.4301 35.1342 41.5105 35.0298 41.5626L33.7798 42.1876C33.6958 42.2295 33.6035 42.2519 33.5097 42.2532C33.4159 42.2545 33.323 42.2346 33.2379 42.1951L30.5104 40.9339C30.4904 40.9245 30.4704 40.9139 30.4479 40.9026C30.4054 40.8772 30.3578 40.8615 30.3085 40.8569C30.2591 40.8522 30.2094 40.8587 30.1629 40.8757C30.1161 40.8927 30.0737 40.92 30.0391 40.9558C30.0044 40.9915 29.9784 41.0347 29.9629 41.082C29.9389 41.1547 29.9407 41.2334 29.9681 41.3049C29.9954 41.3764 30.0465 41.4363 30.1129 41.4745L33.8129 43.5826C33.9081 43.6376 33.9871 43.7167 34.042 43.8119C34.0968 43.9072 34.1256 44.0152 34.1254 44.1251V44.7501C34.1254 44.8394 34.1063 44.9277 34.0693 45.009C34.0323 45.0903 33.9784 45.1627 33.911 45.2214C33.8439 45.2804 33.7648 45.3241 33.6791 45.3496C33.5934 45.375 33.5032 45.3816 33.4148 45.3689L29.7898 44.8689C29.6745 44.848 29.5557 44.8592 29.4463 44.9013C29.3369 44.9434 29.2413 45.0148 29.1698 45.1076L27.7504 47.0001C27.6926 47.079 27.617 47.1432 27.5298 47.1876L27.2435 47.3307L27.486 47.4926C27.5936 47.5645 27.7208 47.6012 27.8501 47.5977C27.9793 47.5943 28.1044 47.5508 28.2079 47.4732L30.0004 46.1251C30.133 46.0257 30.2997 45.983 30.4638 46.0064C30.6279 46.0298 30.776 46.1175 30.8754 46.2501C31.3473 46.8751 32.8498 48.5001 34.1254 48.5001C38.4892 48.5001 39.1217 41.642 39.1254 41.5726V41.5526C39.1265 41.0837 39.0216 40.6207 38.8186 40.1981C38.6155 39.7754 38.3196 39.4042 37.9529 39.112L37.0154 38.362L37.796 37.3857L38.7335 38.1357C39.247 38.5447 39.6614 39.0645 39.9458 39.6562C40.2301 40.2479 40.377 40.8962 40.3754 41.5526V41.6251C40.346 42.0064 39.6373 49.7501 34.1254 49.7501Z" fill="white"/>
</svg>
