<svg width="57" height="57" viewBox="0 0 57 57" fill="none" xmlns="http://www.w3.org/2000/svg">
<g clip-path="url(#clip0_800_13569)">
<path d="M15.4377 7.125C23.024 7.125 28.5002 13.388 28.5 22.6614C28.4515 36.1351 18.3226 45.6614 3.71024 47.4908C2.35456 47.6605 1.83183 45.7826 3.08024 45.2274C8.68711 42.7343 11.5189 39.5706 11.8846 36.4392C12.1579 34.0997 10.8861 32.0503 9.28915 31.6666C5.14909 30.6717 2.37522 25.516 2.37522 20.1875C2.37522 12.9733 8.2235 7.125 15.4377 7.125Z" fill="#806F7F"/>
<path d="M43.9377 7.125C51.524 7.125 57.0002 13.388 57 22.6614C56.9515 36.1351 46.8226 45.6614 32.2102 47.4908C30.8546 47.6605 30.3318 45.7826 31.5802 45.2274C37.1871 42.7343 40.0189 39.5706 40.3846 36.4392C40.6579 34.0997 39.3861 32.0503 37.7892 31.6666C33.6491 30.6717 30.8752 25.516 30.8752 20.1875C30.8752 12.9733 36.7235 7.125 43.9377 7.125Z" fill="#806F7F"/>
</g>
<defs>
<clipPath id="clip0_800_13569">
<rect width="57" height="57" fill="white"/>
</clipPath>
</defs>
</svg>
