<svg width="21" height="20" viewBox="0 0 21 20" fill="none" xmlns="http://www.w3.org/2000/svg">
<path d="M17.0182 6.14761L17.8024 5.36346C18.1071 5.05875 18.1071 4.56467 17.8024 4.2601C17.4977 3.95538 17.0038 3.95538 16.699 4.2601L15.9149 5.04425C14.5993 3.94806 13.0006 3.28583 11.2953 3.1308V1.56052H12.0495C12.4804 1.56052 12.8297 1.21109 12.8297 0.780182C12.8297 0.349274 12.4804 0 12.0495 0H8.98053C8.54962 0 8.20035 0.349274 8.20035 0.780182C8.20035 1.21109 8.54962 1.56052 8.98053 1.56052H9.73477V3.1308C5.46597 3.51898 2.0625 7.1051 2.0625 11.5474C2.0625 16.219 5.84286 20 10.5151 20C15.1866 20 18.9676 16.2196 18.9676 11.5474C18.9676 9.55185 18.2803 7.66205 17.0182 6.14761ZM10.515 18.4395C6.71475 18.4395 3.62286 15.3477 3.62286 11.5474C3.62286 7.74719 6.71475 4.65546 10.515 4.65546C14.3153 4.65546 17.407 7.74719 17.407 11.5474C17.407 15.3477 14.3153 18.4395 10.515 18.4395ZM14.1308 7.93167C14.4355 8.23639 14.4355 8.73047 14.1308 9.03503L11.0667 12.0992C10.762 12.4039 10.2679 12.4039 9.96335 12.0992C9.65863 11.7944 9.65863 11.3004 9.96335 10.9958L13.0273 7.93167C13.332 7.62695 13.8261 7.62695 14.1308 7.93167Z" fill="#888888"/>
</svg>
