<svg width="201" height="201" viewBox="0 0 201 201" fill="none" xmlns="http://www.w3.org/2000/svg">
<path d="M22.9001 73.4157L21.5599 78.82L36.3519 82.488L35.7945 84.736L21.0025 81.0679L19.6595 86.4839L17.761 86.0131L21.0016 72.9449L22.9001 73.4157Z" fill="#3C3039"/>
<path d="M35.113 62.6884C35.452 62.1082 35.6815 61.5566 35.8016 61.0338C35.9188 60.5001 35.9363 60.01 35.8543 59.5637C35.7693 59.1064 35.5916 58.6969 35.3212 58.3351C35.0507 57.9733 34.6979 57.6653 34.2627 57.4111C33.3785 56.8946 32.5425 56.7953 31.7545 57.1133C30.9665 57.4313 30.2336 58.1705 29.5557 59.3311L28.2726 61.5277L33.8783 64.8022L35.113 62.6884ZM46.7772 60.3018L45.7361 62.0841C45.5223 62.4502 45.2233 62.6369 44.8392 62.6441L37.2824 63.3997C37.048 63.4203 36.8559 63.4795 36.7061 63.5773C36.5535 63.6642 36.3944 63.8492 36.229 64.1325L35.3393 65.6556L41.5356 69.2751L40.3674 71.2749L25.5191 62.6015L27.9704 58.405C28.5191 57.4655 29.09 56.7104 29.6829 56.1395C30.2689 55.5645 30.8706 55.1609 31.488 54.9287C32.1095 54.6895 32.7384 54.6121 33.3747 54.6966C34.004 54.777 34.633 55.0008 35.2616 55.368C35.7866 55.6747 36.2286 56.044 36.5877 56.4761C36.9468 56.9082 37.2166 57.3901 37.3971 57.9217C37.5747 58.4424 37.6582 59.0053 37.6474 59.6106C37.6407 60.2089 37.5356 60.833 37.3319 61.483C37.6263 61.3122 37.9661 61.2142 38.3513 61.1891L46.7772 60.3018Z" fill="#3C3039"/>
<path d="M53.0694 44.7322L46.3038 41.4978C46.1029 41.4014 45.8771 41.2846 45.6264 41.1472C45.3702 41.0039 45.1059 40.8463 44.8336 40.6744C45.1562 41.2609 45.4018 41.7717 45.5703 42.2066L48.4006 49.1389L53.0694 44.7322ZM60.977 46.0471L59.668 47.2826C59.5167 47.4254 59.3588 47.5029 59.1944 47.5151C59.0299 47.5274 58.8695 47.4973 58.7131 47.4248L54.6938 45.5091L49.0825 50.8054L50.7631 54.9286C50.827 55.0662 50.848 55.2225 50.8259 55.3973C50.8039 55.5721 50.7202 55.7281 50.5747 55.8654L49.2657 57.1009L42.4628 39.8759L44.1732 38.2614L60.977 46.0471Z" fill="#3C3039"/>
<path d="M69.0892 22.2515L76.8913 37.5757L75.854 38.1038C75.69 38.1873 75.5365 38.2295 75.3934 38.2306C75.2574 38.228 75.1015 38.1862 74.9256 38.1052L60.1803 31.0694C60.2853 31.2404 60.3849 31.4096 60.4792 31.5771C60.5734 31.7446 60.6586 31.9032 60.7349 32.0529L66.2938 42.9712L64.4758 43.8968L56.6738 28.5726L57.7431 28.0282C57.8358 27.981 57.9179 27.9482 57.9893 27.9298C58.0571 27.9042 58.1232 27.893 58.1876 27.8961C58.2484 27.8921 58.3165 27.9023 58.3918 27.9268C58.4635 27.9442 58.546 27.974 58.6393 28.0163L73.3791 35.0413C73.2705 34.8632 73.1655 34.6922 73.0641 34.5284C72.9662 34.3538 72.8774 34.1881 72.7975 34.0312L67.2713 23.1771L69.0892 22.2515Z" fill="#3C3039"/>
<path d="M90.0448 19.7026C89.9962 19.8338 89.9345 19.939 89.8598 20.0181C89.7915 20.0879 89.6983 20.1338 89.5804 20.156C89.4467 20.181 89.2769 20.1437 89.071 20.0439C88.8651 19.9441 88.6098 19.8414 88.3051 19.7358C88.0068 19.6207 87.6525 19.5325 87.2422 19.4711C86.8397 19.4082 86.3672 19.4276 85.8246 19.5293C85.3135 19.6251 84.8747 19.7806 84.508 19.9959C84.1478 20.2018 83.8561 20.4478 83.633 20.7338C83.4178 21.0183 83.2735 21.3343 83.2003 21.6817C83.1256 22.0213 83.1229 22.3759 83.1922 22.7455C83.2806 23.2172 83.4683 23.589 83.7553 23.8608C84.0487 24.1232 84.4048 24.3291 84.8235 24.4785C85.25 24.6265 85.7186 24.738 86.2292 24.8132C86.7462 24.8791 87.2725 24.9513 87.8082 25.03C88.3517 25.1071 88.8839 25.2109 89.4049 25.3411C89.9322 25.462 90.4155 25.6522 90.8548 25.9117C91.302 26.1697 91.6846 26.5171 92.0026 26.954C92.3284 27.3895 92.5569 27.9571 92.6881 28.6569C92.8266 29.396 92.8313 30.1155 92.702 30.8153C92.5713 31.5072 92.3071 32.1387 91.9096 32.7097C91.5198 33.2793 90.9969 33.768 90.3409 34.1759C89.6927 34.5823 88.9204 34.8695 88.024 35.0376C86.9232 35.244 85.8877 35.2346 84.9176 35.0095C83.946 34.7766 83.0784 34.3817 82.3147 33.8249L82.7718 32.6159C82.8185 32.5177 82.8799 32.4329 82.9561 32.3616C83.0387 32.281 83.135 32.2304 83.2451 32.2098C83.3473 32.1906 83.4694 32.2125 83.6114 32.2754C83.7598 32.329 83.9284 32.4032 84.1171 32.498C84.3058 32.5929 84.5203 32.6951 84.7606 32.8047C85.0009 32.9143 85.2666 33.0069 85.5575 33.0826C85.8563 33.1568 86.1868 33.2047 86.549 33.2264C86.9097 33.2401 87.3063 33.2065 87.7387 33.1254C88.2813 33.0237 88.7508 32.8583 89.1474 32.6293C89.544 32.4003 89.8627 32.1249 90.1035 31.803C90.3507 31.4718 90.5176 31.1027 90.6041 30.6958C90.6906 30.2889 90.6904 29.8535 90.6034 29.3896C90.5076 28.8785 90.3115 28.4838 90.0152 28.2057C89.7252 27.9182 89.3709 27.6997 88.9522 27.5503C88.5335 27.4009 88.0664 27.2972 87.5509 27.2392C87.0339 27.1734 86.509 27.109 85.9763 27.0461C85.4421 26.9753 84.9114 26.8794 84.3841 26.7585C83.8568 26.6376 83.3727 26.4435 82.9319 26.1762C82.4911 25.9088 82.1055 25.5456 81.7753 25.0866C81.4515 24.6183 81.2195 24.0106 81.0795 23.2636C80.9674 22.666 80.9731 22.0667 81.0965 21.4657C81.2277 20.8632 81.4729 20.3045 81.8322 19.7894C82.1993 19.2729 82.6809 18.8245 83.277 18.4442C83.881 18.0623 84.6037 17.7925 85.445 17.6348C86.3886 17.4579 87.2737 17.4466 88.1002 17.6009C88.9347 17.7538 89.6999 18.058 90.3957 18.5136L90.0448 19.7026Z" fill="#3C3039"/>
<path d="M106.551 18.5308L105.949 24.5126L112.982 25.2202L112.792 27.1066L105.76 26.3991L105.02 33.754L102.703 33.521L104.425 16.4113L114.968 17.472L114.778 19.3585L106.551 18.5308Z" fill="#3C3039"/>
<path d="M136.765 33.7754C136.28 34.9687 135.646 35.9888 134.861 36.8359C134.08 37.6755 133.198 38.3148 132.217 38.7537C131.236 39.1926 130.178 39.415 129.045 39.4208C127.922 39.4222 126.775 39.185 125.604 38.7093C124.432 38.2336 123.445 37.6036 122.641 36.8193C121.84 36.0277 121.241 35.1324 120.844 34.1334C120.447 33.1345 120.261 32.0616 120.286 30.9149C120.315 29.7607 120.571 28.587 121.056 27.3937C121.541 26.2004 122.174 25.184 122.955 24.3443C123.74 23.4973 124.623 22.8543 125.604 22.4154C126.588 21.9691 127.644 21.7415 128.77 21.7327C129.896 21.7239 131.044 21.9573 132.216 22.433C133.387 22.9088 134.373 23.5425 135.174 24.3341C135.982 25.1288 136.583 26.0293 136.977 27.0357C137.375 28.0346 137.559 29.1112 137.531 30.2653C137.505 31.4121 137.25 32.5821 136.765 33.7754ZM134.553 32.8766C134.95 31.8983 135.174 30.9658 135.223 30.0791C135.272 29.1925 135.161 28.383 134.888 27.6506C134.619 26.9109 134.195 26.2549 133.615 25.6828C133.036 25.1108 132.317 24.6501 131.457 24.3008C130.604 23.9546 129.771 23.7844 128.957 23.7905C128.143 23.7965 127.378 23.9692 126.661 24.3085C125.955 24.6434 125.311 25.1458 124.728 25.8157C124.145 26.4855 123.655 27.3096 123.257 28.288C122.86 29.2663 122.636 30.1988 122.587 31.0854C122.541 31.9647 122.652 32.7742 122.922 33.5139C123.202 34.2493 123.631 34.903 124.21 35.4751C124.793 36.0398 125.51 36.4953 126.362 36.8415C127.222 37.1908 128.058 37.3661 128.869 37.3675C129.683 37.3615 130.443 37.191 131.149 36.8561C131.858 36.5137 132.502 36.0113 133.082 35.3489C133.665 34.6791 134.155 33.855 134.553 32.8766Z" fill="#3C3039"/>
<path d="M147.134 40.8197C147.661 41.2378 148.174 41.5435 148.674 41.7367C149.186 41.9287 149.668 42.0158 150.122 41.9981C150.587 41.9791 151.017 41.8615 151.414 41.6453C151.81 41.4291 152.166 41.1237 152.479 40.7291C153.116 39.9274 153.333 39.114 153.131 38.2888C152.928 37.4636 152.301 36.633 151.249 35.7968L149.257 34.2141L145.218 39.2967L147.134 40.8197ZM147.837 52.7048L146.221 51.4207C145.889 51.1569 145.747 50.8344 145.794 50.4532L146.122 42.8658C146.135 42.6309 146.103 42.4323 146.028 42.2701C145.964 42.1067 145.803 41.9229 145.546 41.7189L144.165 40.6214L139.701 46.2396L137.888 44.7987L148.586 31.3358L152.391 34.3594C153.243 35.0363 153.909 35.7088 154.39 36.3769C154.875 37.0387 155.189 37.6917 155.331 38.336C155.479 38.9852 155.467 39.6187 155.292 40.2364C155.123 40.8479 154.812 41.4387 154.359 42.0086C153.981 42.4846 153.552 42.8696 153.074 43.1635C152.595 43.4574 152.08 43.6559 151.528 43.7589C150.987 43.8606 150.418 43.8631 149.82 43.7664C149.229 43.6746 148.626 43.4817 148.012 43.1876C148.139 43.5033 148.188 43.8536 148.158 44.2385L147.837 52.7048Z" fill="#3C3039"/>
<path d="M174.495 59.6117L160.438 69.5152L159.263 67.8474L169.593 60.5701C169.73 60.4734 169.88 60.373 170.041 60.269C170.207 60.1715 170.377 60.0717 170.549 59.9696L158.359 61.3353C157.959 61.3922 157.651 61.2669 157.434 60.9596L157.241 60.6849C157.024 60.3775 157.01 60.0449 157.198 59.6872L162.558 48.5426C162.239 48.826 161.932 49.0714 161.638 49.2787L151.308 56.556L150.133 54.8883L164.191 44.9848L165.179 46.3877C165.299 46.5577 165.375 46.7 165.407 46.8146C165.439 46.9292 165.409 47.082 165.319 47.273L160.087 58.2245C159.986 58.4136 159.875 58.604 159.756 58.7957C159.641 58.994 159.518 59.188 159.388 59.3778C159.61 59.3188 159.832 59.2654 160.053 59.2175C160.28 59.1651 160.502 59.1261 160.719 59.1005L172.72 57.7796C172.926 57.7521 173.078 57.7726 173.175 57.8412C173.277 57.9162 173.387 58.0388 173.507 58.2088L174.495 59.6117Z" fill="#3C3039"/>
<path d="M170.878 80.132L176.631 75.3214C176.802 75.1786 177.002 75.0218 177.231 74.8508C177.468 74.6773 177.721 74.5024 177.991 74.3261C177.323 74.3759 176.756 74.3871 176.291 74.3597L168.809 74.0545L170.878 80.132ZM166.397 86.7787L165.817 85.0747C165.75 84.8778 165.745 84.702 165.802 84.5473C165.859 84.3927 165.953 84.2592 166.084 84.1471L169.497 81.2868L167.01 73.9825L162.561 73.7983C162.409 73.7993 162.259 73.7535 162.109 73.6608C161.959 73.5682 161.852 73.4272 161.787 73.2378L161.207 71.5339L179.702 72.5012L180.46 74.7278L166.397 86.7787Z" fill="#3C3039"/>
<path d="M182.708 103.897L182.471 98.3336L167.245 98.9815L167.147 96.6676L182.373 96.0196L182.136 90.4447L184.09 90.3615L184.662 103.813L182.708 103.897Z" fill="#3C3039"/>
<path d="M164.938 117.712L165.498 115.452L182.189 119.591L181.628 121.851L164.938 117.712Z" fill="#3C3039"/>
<path d="M161.287 145.552C160.175 144.902 159.255 144.129 158.529 143.232C157.809 142.339 157.301 141.375 157.007 140.341C156.712 139.308 156.642 138.229 156.798 137.106C156.956 135.995 157.354 134.893 157.992 133.801C158.629 132.71 159.393 131.822 160.284 131.138C161.182 130.458 162.153 129.992 163.199 129.741C164.244 129.49 165.332 129.459 166.464 129.647C167.602 129.84 168.727 130.261 169.839 130.911C170.952 131.56 171.868 132.332 172.587 133.225C173.314 134.122 173.825 135.087 174.12 136.121C174.422 137.159 174.497 138.236 174.345 139.351C174.194 140.467 173.799 141.571 173.161 142.663C172.524 143.754 171.756 144.64 170.859 145.32C169.957 146.007 168.98 146.474 167.928 146.721C166.883 146.972 165.791 147.001 164.652 146.809C163.521 146.62 162.399 146.201 161.287 145.552ZM162.492 143.49C163.403 144.022 164.295 144.376 165.165 144.551C166.036 144.726 166.853 144.731 167.617 144.566C168.387 144.404 169.097 144.078 169.746 143.586C170.394 143.094 170.953 142.447 171.421 141.646C171.885 140.851 172.172 140.051 172.282 139.244C172.391 138.437 172.329 137.655 172.096 136.898C171.864 136.151 171.459 135.442 170.879 134.77C170.299 134.097 169.553 133.495 168.641 132.962C167.729 132.43 166.838 132.076 165.967 131.901C165.104 131.73 164.287 131.725 163.516 131.886C162.748 132.059 162.04 132.391 161.391 132.883C160.75 133.379 160.197 134.024 159.733 134.818C159.265 135.62 158.972 136.422 158.855 137.224C158.745 138.031 158.806 138.808 159.037 139.554C159.275 140.304 159.681 141.014 160.254 141.682C160.834 142.355 161.58 142.957 162.492 143.49Z" fill="#3C3039"/>
<path d="M152.816 166.285L141.013 153.78L141.86 152.981C141.993 152.854 142.129 152.771 142.266 152.729C142.397 152.694 142.558 152.69 142.75 152.718L158.88 155.314C158.731 155.18 158.588 155.046 158.45 154.912C158.313 154.777 158.186 154.649 158.071 154.527L149.661 145.617L151.145 144.217L162.948 156.722L162.075 157.546C162 157.617 161.93 157.672 161.867 157.71C161.809 157.753 161.749 157.783 161.686 157.798C161.629 157.819 161.561 157.828 161.482 157.826C161.408 157.829 161.32 157.824 161.219 157.81L145.097 155.222C145.251 155.362 145.4 155.497 145.544 155.625C145.687 155.765 145.819 155.899 145.94 156.027L154.3 164.885L152.816 166.285Z" fill="#3C3039"/>
<path d="M110.619 172.256C110.442 171.312 110.402 170.445 110.497 169.653C110.585 168.864 110.809 168.167 111.168 167.562C111.52 166.967 112.001 166.47 112.609 166.071C113.218 165.672 113.951 165.392 114.808 165.231C115.587 165.085 116.402 165.047 117.253 165.115C117.28 165.346 117.302 165.574 117.32 165.798C117.339 166.031 117.361 166.259 117.387 166.482C117.396 166.618 117.369 166.733 117.305 166.827C117.235 166.929 117.113 166.997 116.94 167.029C116.799 167.056 116.607 167.055 116.366 167.027C116.117 167.001 115.796 167.024 115.403 167.098C114.884 167.195 114.434 167.361 114.055 167.595C113.676 167.829 113.379 168.136 113.166 168.518C112.953 168.9 112.823 169.36 112.777 169.898C112.725 170.444 112.766 171.072 112.898 171.779L114.981 182.89L112.693 183.319L110.619 172.256Z" fill="#3C3039"/>
<path d="M84.6349 174.295C84.7638 173.014 85.0853 171.856 85.5993 170.823C86.1126 169.797 86.7782 168.935 87.5962 168.237C88.4141 167.54 89.3661 167.029 90.452 166.704C91.5293 166.386 92.6967 166.29 93.9543 166.417C95.212 166.543 96.337 166.87 97.3293 167.396C98.3208 167.929 99.1479 168.62 99.8105 169.466C100.473 170.313 100.954 171.29 101.252 172.397C101.55 173.513 101.635 174.711 101.506 175.993C101.377 177.274 101.056 178.428 100.542 179.454C100.028 180.487 99.3623 181.353 98.5444 182.051C97.7256 182.756 96.7773 183.272 95.6992 183.598C94.6212 183.923 93.4534 184.023 92.1957 183.897C90.9381 183.77 89.8135 183.44 88.822 182.906C87.8225 182.371 86.9918 181.676 86.33 180.822C85.6675 179.975 85.1873 178.994 84.8894 177.879C84.5908 176.771 84.5059 175.577 84.6349 174.295ZM87.0109 174.534C86.9051 175.585 86.9535 176.543 87.156 177.407C87.3585 178.272 87.6935 179.017 88.1612 179.643C88.6281 180.277 89.2201 180.787 89.937 181.173C90.654 181.558 91.4742 181.798 92.3975 181.891C93.3129 181.983 94.1603 181.911 94.9398 181.676C95.7192 181.441 96.4049 181.06 96.9966 180.532C97.5796 180.012 98.0565 179.348 98.4271 178.541C98.7977 177.734 99.0359 176.806 99.1416 175.755C99.2473 174.704 99.1989 173.747 98.9965 172.882C98.7932 172.025 98.4581 171.28 97.9912 170.646C97.5156 170.019 96.9193 169.513 96.2023 169.127C95.4845 168.75 94.6679 168.515 93.7525 168.423C92.8292 168.33 91.9782 168.397 91.1995 168.624C90.4201 168.859 89.7389 169.237 89.1559 169.757C88.572 170.285 88.0952 170.949 87.7254 171.748C87.3547 172.555 87.1166 173.484 87.0109 174.534Z" fill="#3C3039"/>
<path d="M74.8139 163.739C74.1543 163.471 73.5199 163.343 72.9107 163.354C72.3016 163.366 71.7378 163.499 71.2195 163.755C70.6937 164.008 70.2253 164.374 69.8141 164.855C69.3956 165.333 69.0509 165.905 68.7799 166.572L64.8461 176.256L62.7004 175.384L66.6342 165.7C67.0075 164.781 67.502 163.989 68.1177 163.324C68.7259 162.656 69.4216 162.144 70.205 161.789C70.9779 161.438 71.8234 161.259 72.7415 161.252C73.6596 161.245 74.6079 161.44 75.5862 161.838C76.5646 162.235 77.3803 162.756 78.0335 163.402C78.6867 164.047 79.1716 164.766 79.4882 165.56C79.8018 166.361 79.9473 167.214 79.9246 168.12C79.8945 169.023 79.6928 169.935 79.3194 170.854L75.3856 180.537L73.2399 179.665L77.1692 169.993C77.4402 169.326 77.5959 168.677 77.6365 168.046C77.6696 167.412 77.5895 166.822 77.3964 166.277C77.1958 165.73 76.8827 165.235 76.4573 164.795C76.0214 164.359 75.4736 164.007 74.8139 163.739Z" fill="#3C3039"/>
<path d="M54.0624 159.755C53.5363 159.337 53.023 159.032 52.5226 158.838C52.011 158.646 51.5285 158.559 51.075 158.577C50.6103 158.596 50.1796 158.714 49.783 158.93C49.3864 159.146 49.0313 159.451 48.7178 159.846C48.0807 160.648 47.8635 161.461 48.0661 162.286C48.2687 163.112 48.8961 163.942 49.9483 164.778L51.94 166.361L55.979 161.278L54.0624 159.755ZM53.3601 147.87L54.976 149.154C55.308 149.418 55.4502 149.741 55.4027 150.122L55.0752 157.709C55.0622 157.944 55.0935 158.143 55.169 158.305C55.2332 158.469 55.3938 158.652 55.6506 158.856L57.0316 159.954L61.4961 154.336L63.3093 155.777L52.611 169.239L48.8061 166.216C47.9543 165.539 47.288 164.866 46.8073 164.198C46.3216 163.536 46.0078 162.883 45.8657 162.239C45.7174 161.59 45.7304 160.957 45.9045 160.339C46.0737 159.727 46.3847 159.137 46.8376 158.567C47.2159 158.091 47.6444 157.706 48.1232 157.412C48.602 157.118 49.1174 156.919 49.6693 156.816C50.2099 156.715 50.779 156.712 51.3766 156.809C51.9678 156.901 52.5707 157.094 53.1851 157.388C53.0579 157.072 53.0092 156.722 53.0392 156.337L53.3601 147.87Z" fill="#3C3039"/>
<path d="M27.8411 142.583L41.899 132.679L42.5694 133.631C42.6753 133.781 42.739 133.927 42.7604 134.068C42.7772 134.203 42.758 134.364 42.7029 134.549L37.8372 150.146C37.9915 150.018 38.1448 149.895 38.2972 149.778C38.4495 149.661 38.5944 149.554 38.7317 149.457L48.7478 142.401L49.9227 144.069L35.8648 153.972L35.1737 152.991C35.1138 152.906 35.0697 152.829 35.0413 152.761C35.0064 152.698 34.9859 152.634 34.9798 152.57C34.9671 152.51 34.9676 152.441 34.9811 152.363C34.9881 152.29 35.0059 152.204 35.0344 152.106L39.8903 136.516C39.7294 136.649 39.5752 136.777 39.4274 136.901C39.2685 137.023 39.1171 137.134 38.9732 137.236L29.016 144.25L27.8411 142.583Z" fill="#3C3039"/>
<path d="M33.8231 116.811L35.6218 116.211L39.0366 126.242L22.7581 131.784L19.3433 121.753L21.1381 121.142L23.8027 128.969L29.2099 127.128L27.052 120.789L28.7787 120.202L30.9366 126.54L36.4915 124.649L33.8231 116.811Z" fill="#3C3039"/>
<path d="M27.1063 101.887L33.9521 101.596L34.0511 103.922L27.2053 104.213L17.1385 110.947L17.0517 108.909C17.0429 108.701 17.0879 108.535 17.1867 108.411C17.2775 108.287 17.4009 108.178 17.5571 108.083L24.0677 103.866C24.3413 103.711 24.5995 103.568 24.8421 103.437C25.0768 103.307 25.3162 103.193 25.5602 103.094C25.3087 103.017 25.0607 102.927 24.8161 102.826C24.5636 102.724 24.2945 102.612 24.009 102.488L17.1642 98.8514C17.0253 98.7853 16.8971 98.6906 16.7798 98.5675C16.6625 98.4444 16.5995 98.2829 16.591 98.0831L16.5038 96.0329L27.1063 101.887Z" fill="#3C3039"/>
</svg>
