<svg width="266" height="69" viewBox="0 0 266 69" fill="none" xmlns="http://www.w3.org/2000/svg">
<path d="M54.0308 62.1148C54.0308 62.7503 53.5156 63.2654 52.8801 63.2654C52.2447 63.2654 51.7295 62.7503 51.7295 62.1148L51.7295 6.885C51.7295 6.24953 52.2447 5.73437 52.8801 5.73437C53.5156 5.73437 54.0308 6.24953 54.0308 6.885L54.0308 62.1148Z" fill="#D8D8D8"/>
<path d="M50.9626 34.8833C50.9626 36.1542 49.9323 37.1845 48.6613 37.1845C47.3904 37.1845 46.3601 36.1542 46.3601 34.8833C46.3601 33.6123 47.3904 32.582 48.6613 32.582C49.9323 32.582 50.9626 33.6123 50.9626 34.8833Z" fill="#D9D9D9"/>
<path d="M39.4565 34.8833C39.4565 36.1542 38.4262 37.1845 37.1552 37.1845C35.8843 37.1845 34.854 36.1542 34.854 34.8833C34.854 33.6123 35.8843 32.582 37.1552 32.582C38.4262 32.582 39.4565 33.6123 39.4565 34.8833Z" fill="#D9D9D9"/>
<path d="M16.444 34.8833C16.444 36.1542 15.4137 37.1845 14.1428 37.1845C12.8719 37.1845 11.8416 36.1542 11.8416 34.8833C11.8416 33.6123 12.8719 32.582 14.1428 32.582C15.4137 32.582 16.444 33.6123 16.444 34.8833Z" fill="#D9D9D9"/>
<path d="M78.4301 27.2953C78.1327 26.5278 77.4637 25.6617 76.4474 24.7206C75.5797 23.8789 74.5891 23.3341 73.4241 23.087C72.2591 22.8393 71.2677 22.9635 70.4007 23.4583C69.4344 24.0523 68.9884 25.2654 69.1864 26.4785C69.4587 28.1864 70.8961 29.3009 73.4734 29.845C78.2064 30.8353 79.9167 32.6175 79.545 35.8604C79.4214 37.4698 78.7767 38.6329 77.6367 39.4004C76.4967 40.143 75.1337 40.5143 73.5727 40.5143C70.8717 40.4893 68.7154 39.8459 67.0801 38.6329L67.0308 33.9291C67.5511 35.3649 68.3688 36.6273 69.4844 37.6918C70.6244 38.7564 71.8638 39.4497 73.2267 39.7717C74.5647 40.0437 75.7297 39.9945 76.7211 39.5739C77.7374 39.1527 78.2577 38.3358 78.3071 37.1477C78.3564 36.1082 77.9847 35.1921 77.1671 34.3996C76.3494 33.6077 74.8377 32.9637 72.6071 32.444C70.6494 31.9734 69.3114 31.3051 68.5924 30.439C67.8741 29.548 67.5268 28.4584 67.6011 27.1461C67.6504 25.7596 68.2208 24.6457 69.3358 23.8289C70.4508 22.9871 71.8638 22.5665 73.5734 22.5908C75.3331 22.5908 77.0921 23.1106 77.8604 23.5069L78.4057 23.8039L78.4307 27.2946L78.4301 27.2953Z" fill="#D8D8D8"/>
<path d="M84.6746 39.722C83.4109 39.1529 82.3452 37.8406 81.9236 35.9835C81.5769 34.3 81.7999 32.7899 82.5676 31.4532C83.3359 30.0917 84.5002 29.2249 86.0619 28.8043C87.9202 28.3338 89.5312 28.5073 90.9192 29.3734C92.3072 30.2395 93.1249 31.6753 93.3479 33.6809C93.5459 35.513 93.1249 37.0724 92.0592 38.3598C91.0185 39.6221 89.6799 40.3154 88.0446 40.3896C86.9789 40.4146 85.9632 40.2411 84.6746 39.7213V39.722ZM89.2839 29.6711C88.3176 28.805 87.2269 28.5816 86.0126 29.0521C85.3436 29.2998 84.8232 29.7697 84.4516 30.4879C83.6832 31.8988 83.7082 33.6566 84.0306 35.513C84.3529 37.1716 84.9726 38.3597 85.8396 39.078C86.7316 39.7956 87.6736 40.1176 88.6399 40.0433C89.4576 39.9691 90.0772 39.5728 90.5482 38.8795C91.5146 37.4687 91.5146 35.4631 91.1922 33.2597C90.8949 31.7496 90.2502 30.5365 89.2839 29.6704V29.6711Z" fill="#D8D8D8"/>
<path d="M101.13 39.029C101.972 38.7569 102.691 38.3114 103.286 37.7416C102.716 38.4599 101.948 39.1282 100.982 39.6973C100.015 40.2663 99.0734 40.4898 98.1071 40.4155C96.9921 40.4405 96.4218 39.623 96.1494 38.9547C96.0501 38.7569 95.9758 38.4599 95.9514 38.0387L95.8771 37.0483V30.7352C95.8771 29.9427 95.5304 29.4229 95.0344 29.2501C94.5634 29.0523 94.3404 29.0273 94.1174 29.0273H97.8098V36.0088C97.8098 36.4293 97.8591 37.4446 97.9584 37.7666C98.1071 38.2864 98.4044 39.0047 99.0491 39.1032C99.5944 39.326 100.288 39.301 101.13 39.029H101.13ZM103.435 30.6367C103.435 29.9184 103.112 29.3986 102.617 29.2258C102.146 29.0523 101.948 29.028 101.725 29.028H105.368V37.7423C105.368 38.6334 105.963 38.6334 106.211 38.6334H106.31L103.435 40.4898V30.6367H103.435Z" fill="#D8D8D8"/>
<path d="M111.39 38.4834C111.39 39.251 111.762 39.7708 112.282 39.9686C112.852 40.142 113.05 40.1664 113.323 40.1664H107.524C107.796 40.1664 108.019 40.1414 108.54 39.9686C109.11 39.7708 109.457 39.251 109.457 38.4834V25.6844C109.457 24.2735 108.664 24.2735 108.417 24.3478L111.391 22.4414V38.4834H111.39Z" fill="#D8D8D8"/>
<path d="M123.532 24.7936C123.532 25.2885 123.111 25.8089 122.541 25.8089C121.748 25.8089 121.401 25.0414 121.525 24.1253C121.624 23.1101 121.029 22.6152 120.211 22.6152C119.443 22.6152 118.972 22.9865 118.749 23.8533C118.526 24.6701 118.476 25.4127 118.476 26.7743V29.0269H121.846L121.623 29.2497H118.476V38.3845C118.476 39.2014 118.873 39.7711 119.393 39.9689C119.963 40.1424 120.162 40.1667 120.434 40.1667H114.635C114.833 40.1667 114.958 40.1667 115.379 40.0432C115.948 39.8697 116.544 39.4491 116.544 38.3845V29.2497H115.255L114.958 29.0269H116.544V26.7743C116.544 22.9615 119.319 22.1204 121.5 22.6402C122.566 22.9123 123.532 23.6055 123.532 24.7943V24.7936Z" fill="#D8D8D8"/>
<path d="M128.91 39.029C129.753 38.7569 130.471 38.3114 131.066 37.7416C130.497 38.4599 129.728 39.1282 128.762 39.6973C127.796 40.2663 126.854 40.4898 125.887 40.4155C124.772 40.4405 124.202 39.623 123.93 38.9547C123.83 38.7569 123.756 38.4599 123.732 38.0387L123.657 37.0483V30.7352C123.657 29.9427 123.311 29.4229 122.815 29.2501C122.344 29.0523 122.121 29.0273 121.898 29.0273H125.59V36.0088C125.59 36.4293 125.639 37.4446 125.739 37.7666C125.887 38.2864 126.185 39.0047 126.829 39.1032C127.375 39.326 128.069 39.301 128.911 39.029H128.91ZM131.215 30.6367C131.215 29.9184 130.893 29.3986 130.397 29.2258C129.926 29.0523 129.728 29.028 129.505 29.028H133.148V37.7423C133.148 38.6334 133.743 38.6334 133.991 38.6334H134.09L131.216 40.4898V30.6367H131.215Z" fill="#D8D8D8"/>
<path d="M139.17 38.4834C139.17 39.251 139.542 39.7708 140.062 39.9686C140.632 40.142 140.831 40.1664 141.103 40.1664H135.304C135.577 40.1664 135.8 40.1414 136.321 39.9686C136.89 39.7708 137.238 39.251 137.238 38.4834V25.6844C137.238 24.2735 136.444 24.2735 136.197 24.3478L139.171 22.4414V38.4834H139.17Z" fill="#D8D8D8"/>
<path d="M169.28 37.9635C169.28 38.9288 169.701 39.5728 170.296 39.8448C170.891 40.1169 171.238 40.1668 171.51 40.1668H164.695C164.968 40.1668 165.315 40.1176 165.885 39.8448C166.454 39.5721 166.876 38.9288 166.876 37.9635V27.0708C166.876 26.1054 166.777 25.6099 166.579 25.5856C166.43 25.5856 166.232 25.9076 165.959 26.5267L165.835 26.7744L160.012 40.4153L152.701 26.4031C152.032 25.19 151.636 25.4628 151.636 26.8237L151.611 36.7753C151.611 38.0377 152.106 39.028 152.602 39.4493C152.874 39.672 153.172 39.8205 153.494 39.9447C154.188 40.1675 154.361 40.1675 154.535 40.1675H148.587C148.761 40.1675 148.984 40.1675 149.604 39.9447C150.421 39.5978 151.363 38.7317 151.363 36.7261V26.5759C151.363 23.4815 149.381 22.8375 148.984 22.8375L148.885 22.8125H153.544L159.839 34.869C160.756 36.5526 161.202 36.6512 161.945 34.9682L167.199 22.8382H171.362C171.239 22.8382 169.28 22.9617 169.28 25.1401V37.9635H169.28Z" fill="#D8D8D8"/>
<path d="M179.366 39.0043C181.423 39.0786 182.861 38.3111 183.678 36.6524C183.455 37.717 182.885 38.6331 181.969 39.3756C181.052 40.0932 179.962 40.4652 178.697 40.4402C177.136 40.4152 175.798 39.8461 174.732 38.7816C173.666 37.692 173.121 36.2812 173.097 34.5733C173.047 32.2214 173.964 30.4885 175.872 29.3747C176.838 28.7556 177.978 28.4836 179.267 28.5578C180.556 28.6321 181.596 29.1519 182.414 30.0929C183.232 31.009 183.603 32.222 183.579 33.7072H174.98C174.98 35.2422 175.377 36.5046 176.169 37.4699C176.987 38.4353 178.053 38.9551 179.366 39.005V39.0043ZM176.74 29.4233C175.649 30.2158 175.054 31.5767 174.98 33.508C177.434 33.508 178.895 33.4831 179.416 33.4088C180.481 33.3096 181.175 33.0375 181.522 32.567C182.017 31.923 182.166 30.3143 180.952 29.3733C179.862 28.4573 178.028 28.5065 176.74 29.4226V29.4233Z" fill="#D8D8D8"/>
<path d="M197.085 38.3115C196.813 39.2275 196.391 40.3663 194.954 40.3663C193.814 40.3663 193.244 39.698 193.244 38.3364V33.5584C191.633 34.0539 190.667 34.4002 189.601 34.9942C188.535 35.5633 188.015 36.2816 187.941 37.1727C187.866 38.2865 188.56 39.2768 189.923 39.3511C190.964 39.4253 192.03 39.029 193.145 38.163C192.476 38.8562 192.302 39.054 191.534 39.6481C190.765 40.2171 189.898 40.4649 188.907 40.4649C187.866 40.4649 187.098 40.1679 186.627 39.5738C186.156 38.9798 185.958 38.3115 186.007 37.5932C186.032 36.9249 186.354 36.3552 186.676 35.9596C187.048 35.539 187.816 35.1178 188.312 34.8457C188.832 34.5737 190.021 34.2267 190.617 34.0539L191.93 33.7076L193.244 33.3363V31.9497C193.244 29.5978 192.129 28.5832 190.469 28.8803C189.205 29.103 188.238 29.8213 188.238 31.0094C188.238 31.3314 188.56 31.9497 188.585 32.2717C188.659 33.6583 186.305 33.8811 186.379 32.1482C186.404 31.3314 186.825 30.5888 187.693 29.9448C188.56 29.3015 189.502 28.8803 190.518 28.6825C191.807 28.4347 192.922 28.5589 193.839 29.0787C194.78 29.5985 195.227 30.5888 195.202 32.0989V38.1643C195.202 38.8076 195.375 39.1796 195.722 39.2539C196.094 39.3281 196.391 39.1796 196.664 38.7833C196.838 38.7584 196.986 38.6098 197.085 38.3128V38.3115Z" fill="#D8D8D8"/>
<path d="M201.522 38.4829C201.522 39.2505 201.868 39.7703 202.339 39.968C202.835 40.1415 203.058 40.1658 203.281 40.1658H197.854C198.077 40.1658 198.275 40.1409 198.771 39.968C199.267 39.7703 199.589 39.2505 199.589 38.4829V31.5514C199.589 30.3634 198.697 30.3877 198.548 30.4619L201.522 28.5312V38.4829H201.522ZM208.956 38.4829C208.956 39.2505 209.303 39.7703 209.774 39.968C210.269 40.1415 210.493 40.1658 210.716 40.1658H205.264C205.487 40.1658 205.685 40.1409 206.181 39.968C206.676 39.7703 206.999 39.2505 206.999 38.4829V33.8784C206.999 33.3093 206.999 32.913 206.974 32.6653C206.974 32.3932 206.949 32.0712 206.899 31.7C206.8 30.6354 206.503 30.3134 205.734 29.9671C205.214 29.7693 204.545 29.8186 203.752 30.0906C202.983 30.3627 202.265 30.7839 201.645 31.353C202.934 29.8429 204.792 28.5063 206.676 28.6791C207.593 28.7783 208.287 29.1739 208.535 29.8429C208.758 30.3627 208.881 30.5605 208.906 31.353C208.931 31.7243 208.956 32.0213 208.956 32.1948V38.4829H208.956Z" fill="#D8D8D8"/>
<path d="M215.795 38.4835C215.795 39.276 216.117 39.7708 216.588 39.9686C217.084 40.1421 217.307 40.1664 217.53 40.1664H212.029C212.301 40.1664 212.5 40.1414 212.995 39.9686C213.516 39.7708 213.862 39.2753 213.862 38.4835V31.6263C213.862 30.636 213.367 30.2896 212.846 30.4132L215.795 28.5318V38.4835ZM214.705 24.6455C215.374 24.6455 215.944 25.1903 215.944 25.8836C215.944 26.5768 215.375 27.1216 214.705 27.1216C214.035 27.1216 213.491 26.5525 213.491 25.8836C213.491 25.2146 214.036 24.6455 214.705 24.6455Z" fill="#D8D8D8"/>
<path d="M222.709 38.4829C222.709 39.2505 223.056 39.7703 223.527 39.968C224.023 40.1415 224.246 40.1658 224.469 40.1658H219.042C219.265 40.1658 219.463 40.1409 219.959 39.968C220.454 39.7703 220.777 39.2505 220.777 38.4829V31.5514C220.777 30.3634 219.885 30.3877 219.736 30.4619L222.71 28.5312V38.4829H222.709ZM230.144 38.4829C230.144 39.2505 230.491 39.7703 230.962 39.968C231.457 40.1415 231.681 40.1658 231.904 40.1658H226.452C226.675 40.1658 226.873 40.1409 227.369 39.968C227.864 39.7703 228.186 39.2505 228.186 38.4829V33.8784C228.186 33.3093 228.186 32.913 228.161 32.6653C228.161 32.3932 228.136 32.0712 228.087 31.7C227.988 30.6354 227.69 30.3134 226.922 29.9671C226.402 29.7693 225.733 29.8186 224.939 30.0906C224.171 30.3627 223.453 30.7839 222.833 31.353C224.122 29.8429 225.98 28.5063 227.863 28.6791C228.78 28.7783 229.474 29.1739 229.722 29.8429C229.945 30.3627 230.069 30.5605 230.094 31.353C230.119 31.7243 230.143 32.0213 230.143 32.1948V38.4829H230.144Z" fill="#D8D8D8"/>
<path d="M243.675 40.8599C244.344 42.4935 243.502 44.0286 242.758 44.8204C241.495 46.1327 239.76 46.7018 237.504 46.5283C234.53 46.3305 232.87 44.8947 232.87 43.0875C232.87 41.998 233.465 41.0077 233.961 40.6121L234.307 40.3401C233.589 41.7266 233.713 42.8898 234.63 43.8558C235.572 44.8211 236.935 45.3659 238.694 45.4894C239.957 45.5886 241.048 45.3902 241.965 44.8704C242.882 44.3749 243.303 43.7316 243.229 42.9147C243.328 41.4296 241.643 40.5136 239.04 40.5379C235.943 40.5629 234.183 40.1666 233.886 38.6815C233.663 37.7654 234.332 36.9486 235.843 36.2803L235.72 36.231C234.357 35.612 233.465 34.1761 233.539 32.4932C233.564 30.8346 234.505 29.6708 236.364 28.9532C237.727 28.4334 239.536 28.5327 240.701 29.151C241.519 29.5716 242.114 30.2649 242.436 31.2309C242.783 32.1962 242.783 33.0873 242.461 33.9291C241.965 35.1172 241.222 35.8354 239.735 36.3302C238.521 36.7265 237.306 36.7515 236.117 36.3795C235.225 36.8993 235.002 37.4691 235.423 38.0381C235.646 38.4094 236.068 38.5829 236.687 38.6815L237.529 38.7557C238.025 38.7557 239.016 38.7307 239.338 38.7307C241.916 38.83 243.105 39.4483 243.675 40.8599ZM239.562 36.1561C241.297 35.537 241.222 32.7646 240.628 31.2295C239.711 28.8034 238.1 28.5063 236.737 29.0511C236.043 29.3232 235.597 29.9422 235.374 30.8832C235.176 31.7993 235.25 32.7896 235.622 33.8541C236.489 36.0326 238.075 36.6516 239.562 36.1561ZM243.502 29.4474C243.106 29.1254 242.709 28.8533 241.867 29.5959C242.561 28.7791 243.23 28.3828 243.899 28.3828C245.113 28.3828 244.766 30.0907 243.502 29.4474Z" fill="#D8D8D8"/>
<path d="M253.415 32.0717C252.448 30.1653 250.714 28.878 249.028 28.903C247.863 28.9279 247.194 29.4477 247.071 30.413C246.947 31.1556 247.046 32.5172 250.069 33.3097C253.117 34.1265 254.158 35.1661 254.158 36.8247C254.183 38.8054 252.795 40.439 250.044 40.439C249.053 40.439 248.111 40.2162 247.467 40.0677C247.293 40.0184 247.07 39.9442 246.823 39.8449L245.881 39.3744L245.534 39.1766L245.485 35.8594C246.154 37.3452 246.971 38.4091 247.988 39.0531C249.846 40.2662 252.671 40.4397 252.919 38.5826C253.192 37.221 252.25 36.1071 249.45 35.3146C246.749 34.5471 245.783 33.4825 245.783 31.9232C245.808 30.0667 247.319 28.5566 249.995 28.5566C251.408 28.5566 252.548 28.9029 253.415 29.6212V32.0723L253.415 32.0717Z" fill="#D8D8D8"/>
</svg>
