<svg width="187" height="74" viewBox="0 0 187 74" fill="none" xmlns="http://www.w3.org/2000/svg">
<path d="M91.0279 15.8415C90.7632 16.0937 90.5424 16.3743 90.3635 16.6731C90.5195 16.8134 90.67 16.9584 90.8152 17.1081C91.1399 16.4316 91.6612 15.8408 92.3559 15.4301C94.6561 14.0697 97.3412 13.9314 99.6563 14.821C100.001 14.6868 100.356 14.5721 100.716 14.4777C97.616 12.8577 93.7008 13.2961 91.0279 15.8415Z" fill="white"/>
<path d="M94.1711 15.3596C92.8579 15.6773 91.8601 16.6202 91.4165 17.7944C91.5637 17.9819 91.7028 18.1741 91.8331 18.3717C92.3435 16.8171 93.7984 15.6861 95.5275 15.6665C96.2458 15.6584 96.9433 15.7414 97.6103 15.9032C97.8581 15.7319 98.1153 15.5721 98.38 15.423C97.0486 15.0554 95.6085 15.0109 94.1711 15.3589V15.3596Z" fill="white"/>
<path d="M92.7658 27.5735C92.7415 27.4049 92.7186 27.2268 92.6976 27.042C92.3121 27.1728 91.9003 27.247 91.4709 27.2518C91.3217 27.2531 91.1732 27.2511 91.0253 27.245C90.6526 27.4757 90.2367 27.6429 89.7925 27.7306C90.7586 27.8534 91.7626 27.8082 92.7652 27.5735H92.7658Z" fill="white"/>
<path d="M92.269 19.1199C92.377 19.3311 92.4756 19.5462 92.5634 19.7654C92.5769 19.4889 92.6525 19.211 92.7976 18.9534C92.8321 18.892 92.8685 18.832 92.9057 18.7726C93.0704 17.9977 93.2763 17.5363 93.4991 17.5363C93.5984 17.5363 93.6942 17.6281 93.7847 17.798C94.5112 17.2248 95.4186 16.9266 96.3374 16.9523C96.5143 16.7783 96.6986 16.6103 96.8904 16.4498C94.9007 15.9993 92.878 17.1519 92.2683 19.1193L92.269 19.1199Z" fill="white"/>
<path d="M94.9149 26.2642C94.7833 26.0828 94.6678 25.8892 94.5699 25.6855C94.5166 25.7557 94.4612 25.8245 94.4038 25.8913C94.3815 26.2224 94.3545 26.5381 94.3235 26.8362C94.5416 26.6655 94.7401 26.4746 94.9156 26.2649L94.9149 26.2642Z" fill="white"/>
<path d="M95.8647 27.1758C95.7189 27.0787 95.5804 26.9715 95.4501 26.8555C95.2152 27.0956 94.9451 27.3094 94.642 27.4888C94.4989 27.5731 94.3551 27.6527 94.2092 27.7275C94.1694 27.9859 94.1262 28.2233 94.0796 28.4357C94.7136 28.1032 95.3138 27.683 95.8647 27.1765V27.1758Z" fill="white"/>
<path d="M86.0955 26.3216C85.7539 25.8704 85.5135 25.3382 85.4062 24.7595C83.9283 23.2656 83.006 21.22 82.9811 18.9539C82.9743 18.3347 82.9993 17.7223 83.054 17.118C82.6718 16.6756 82.3329 16.2824 82.2195 15.9316C82.0973 17.7162 82.2425 19.5501 82.6867 21.3812C83.1944 23.474 84.4475 25.1919 86.0955 26.3209V26.3216Z" fill="white"/>
<path d="M88.1606 12.0657C87.4038 12.7867 86.8116 13.6149 86.3843 14.5039C86.6273 14.5706 86.8663 14.6462 87.1026 14.7305C87.7947 13.2689 88.9161 11.9915 90.4136 11.106C98.9366 6.06512 109.936 8.88028 114.982 17.3946C113.393 12.2741 109.119 8.40817 103.844 7.42347C98.3702 6.40168 92.4998 7.93336 88.1613 12.0651L88.1606 12.0657Z" fill="white"/>
<path d="M94.2809 19.9346C94.3194 19.9077 94.3593 19.882 94.3998 19.8577C94.4713 19.6702 94.5517 19.4861 94.6381 19.3047C94.4889 19.3607 94.3512 19.4349 94.2256 19.5232C94.2452 19.6547 94.2634 19.7923 94.2809 19.9346Z" fill="white"/>
<path d="M92.5728 25.5332C92.5411 25.5494 92.5094 25.5649 92.4776 25.5804C92.3392 25.894 92.159 26.1847 91.9436 26.4451C92.1759 26.3857 92.4014 26.3054 92.6174 26.2056C92.6005 25.9885 92.5857 25.7639 92.5728 25.5332Z" fill="white"/>
<path d="M85.4301 23.2781C85.4963 22.9773 85.5989 22.6907 85.7326 22.4222C85.5678 22.1437 85.42 21.8564 85.289 21.5623C84.7381 21.1219 84.414 20.583 84.4538 19.951C84.497 19.2638 84.2141 18.6494 83.8347 18.0977C83.7753 19.9787 84.3566 21.797 85.4294 23.2788L85.4301 23.2781Z" fill="white"/>
<path d="M94.0242 18.4788C94.0606 18.6218 94.0957 18.7783 94.1281 18.9489C94.1342 18.9456 94.1396 18.9415 94.1457 18.9382C94.438 18.7655 94.7432 18.6346 95.0551 18.5443C95.2057 18.3028 95.3697 18.0681 95.546 17.8408C95.0099 17.9413 94.49 18.1531 94.0242 18.4788Z" fill="white"/>
<path d="M103.861 17.2165C103.72 17.3797 103.576 17.5504 103.437 17.7271C103.587 17.9348 103.73 18.1506 103.863 18.3752C108.909 26.8895 106.091 37.8776 97.5679 42.9185C102.694 41.3308 106.564 37.0616 107.549 31.7921C108.488 26.7694 107.27 21.4143 103.861 17.2158V17.2165Z" fill="white"/>
<path d="M98.839 30.8527C100.413 29.3534 101.278 27.39 101.421 25.3809C101.205 25.9609 100.847 26.4714 100.391 26.8727C99.8254 28.8732 98.519 30.6685 96.5867 31.8117C88.0636 36.8526 77.0641 34.0374 72.0181 25.5232C73.6074 30.6436 77.8811 34.5096 83.156 35.4943C88.6301 36.516 94.5005 34.9844 98.839 30.8527Z" fill="white"/>
<path d="M98.9733 12.1432C95.2141 11.0398 91.2996 12.6848 89.3862 15.9019C89.5422 16.0098 89.6954 16.1211 89.844 16.2371C92.263 12.6396 97.0849 11.4499 100.931 13.6122C101.283 13.8105 101.625 14.0195 101.958 14.2367C102.344 14.1881 102.735 14.1618 103.128 14.1618C103.261 14.1618 103.385 14.1699 103.504 14.1861C102.128 13.3181 100.611 12.6241 98.9727 12.1432H98.9733Z" fill="white"/>
<path d="M100.495 37.4254C104.118 33.2006 105.725 27.3558 104.313 21.5367C104.04 20.4117 103.552 19.3953 102.903 18.5205C102.757 18.7889 102.644 19.0715 102.586 19.369C103.474 20.6828 104 22.2617 104.019 23.9654C104.127 33.8589 96.1869 41.9678 86.2825 42.0764C91.5162 43.2621 97.0045 41.4977 100.496 37.426L100.495 37.4254Z" fill="white"/>
<path d="M109.482 14.4714C105.253 10.8523 99.4024 9.24713 93.5772 10.6581C91.0562 11.2685 89.0801 12.9559 88.0181 15.1128C88.2361 15.2167 88.4502 15.328 88.6595 15.4467C90.0489 12.8035 92.8096 10.9879 96.0078 10.9528C105.912 10.8442 114.029 18.7765 114.138 28.6707C115.324 23.4423 113.558 17.9597 109.482 14.4721V14.4714Z" fill="white"/>
<path d="M104.698 15.0104C104.779 15.2074 104.821 15.4367 104.821 15.697C104.821 15.8906 104.729 16.0983 104.582 16.3216C110.328 21.846 111.856 30.7454 107.763 38.0112C111.407 34.0765 112.622 28.4462 110.838 23.3898C109.672 20.085 107.548 17.1511 104.698 15.0098V15.0104Z" fill="white"/>
<path d="M91.5665 38.78C96.8185 36.9306 101.135 32.6722 102.825 26.9272C103.44 24.8371 103.203 22.699 102.316 20.8848C102.184 21.11 102 21.3178 101.775 21.508C102.747 23.8159 102.679 26.532 101.355 28.8824C96.4971 37.5046 85.5617 40.5605 76.9299 35.7079C80.8687 39.3485 86.5049 40.5619 91.5665 38.78Z" fill="white"/>
<path d="M86.5042 5.49362C84.2229 8.15366 82.7416 11.4564 82.3088 14.9906C82.5087 14.5225 82.9367 14.2433 83.572 14.1785C85.5786 6.57678 92.4658 0.933654 100.717 0.843277C95.483 -0.342408 89.9947 1.42196 86.5035 5.49362H86.5042Z" fill="white"/>
<path d="M95.4322 4.13879C90.7393 5.7912 86.7944 9.36849 84.802 14.2104C85.0363 14.234 85.2685 14.2664 85.4988 14.3068C85.5453 14.2165 85.5933 14.1261 85.6439 14.0364C90.5016 5.41352 101.437 2.35825 110.069 7.21092C106.13 3.57024 100.494 2.35689 95.4322 4.13879Z" fill="white"/>
<path d="M77.5169 28.4479C81.746 32.067 87.5968 33.6722 93.422 32.2619C96.0139 31.634 98.0306 29.8676 99.069 27.6237C98.7807 27.7161 98.4768 27.7741 98.1622 27.7937C96.7235 30.2621 94.0587 31.9341 90.9915 31.9678C81.0877 32.0764 72.9704 24.1435 72.8617 14.25C71.6748 19.4783 73.441 24.961 77.5169 28.4485V28.4479Z" fill="white"/>
<path d="M84.096 26.7932C86.4672 29.2779 89.9995 29.9915 93.0364 28.8942C92.9823 28.7161 92.9317 28.5084 92.8851 28.2737C89.2454 29.4216 85.1641 27.9655 83.136 24.5433C78.0899 16.029 80.908 5.04085 89.4311 0C84.3053 1.58766 80.4354 5.85693 79.4497 11.1264C78.4268 16.5949 79.9601 22.4592 84.096 26.7932Z" fill="white"/>
<path d="M88.0259 30.7748C91.5015 31.7953 95.1102 30.4659 97.1465 27.7169C96.9264 27.6696 96.7137 27.6042 96.5098 27.5199C93.9476 30.4511 89.5969 31.2901 86.0679 29.3059C77.4368 24.4532 74.3778 13.5291 79.2354 4.90625C75.591 8.841 74.3764 14.4713 76.1601 19.5277C78.0114 24.7742 82.2743 29.0874 88.0252 30.7748H88.0259Z" fill="white"/>
<path d="M11.4093 53.8985C11.1123 53.1317 10.4439 52.2663 9.42845 51.3262C8.56156 50.4851 7.5718 49.9408 6.40784 49.694C5.24389 49.4465 4.25344 49.5706 3.38723 50.0649C2.42177 50.6584 1.97617 51.8704 2.17399 53.0824C2.44607 54.7888 3.88211 55.9023 6.45713 56.4459C11.1859 57.4353 12.8947 59.2159 12.5233 62.456C12.3998 64.0638 11.7557 65.2259 10.6167 65.9928C9.47774 66.7347 8.11597 67.1056 6.55638 67.1056C3.85781 67.0807 1.70341 66.4379 0.0695482 65.2259L0.0202637 60.5263C0.540128 61.9609 1.35706 63.2221 2.47173 64.2857C3.6107 65.3493 4.84893 66.042 6.2107 66.3637C7.54749 66.6355 8.71145 66.5863 9.70189 66.1661C10.7173 65.7453 11.2372 64.9292 11.2865 63.7421C11.3357 62.7035 10.9644 61.7882 10.1475 60.9964C9.33056 60.2053 7.82025 59.5619 5.59159 59.0425C3.63568 58.5725 2.29889 57.9048 1.58053 57.0394C0.862848 56.1492 0.515823 55.0606 0.590089 53.7495C0.639375 52.3641 1.2092 51.2513 2.32319 50.4352C3.43719 49.5942 4.84893 49.174 6.55705 49.1983C8.31514 49.1983 10.0725 49.7176 10.8402 50.1135L11.385 50.4102L11.41 53.8978L11.4093 53.8985Z" fill="white"/>
<path d="M17.6485 66.3145C16.386 65.746 15.3213 64.4348 14.9 62.5794C14.5536 60.8973 14.7764 59.3886 15.5434 58.0532C16.3111 56.6928 17.4743 55.8268 19.0346 55.4066C20.8913 54.9365 22.5008 55.1099 23.8876 55.9752C25.2743 56.8405 26.0913 58.2751 26.3141 60.2789C26.5119 62.1093 26.0913 63.6673 25.0265 64.9535C23.9868 66.2147 22.6493 66.9074 21.0155 66.9816C19.9508 67.0065 18.936 66.8332 17.6485 66.3139V66.3145ZM22.2537 56.2726C21.2883 55.4073 20.1986 55.1841 18.9853 55.6542C18.3169 55.9017 17.7971 56.3711 17.4257 57.0887C16.6581 58.4983 16.6831 60.2546 17.0051 62.1093C17.3272 63.7665 17.9463 64.9535 18.8125 65.6711C19.7037 66.3881 20.6448 66.7098 21.6103 66.6356C22.4272 66.5614 23.0463 66.1655 23.5169 65.4728C24.4824 64.0632 24.4824 62.0594 24.1603 59.858C23.8633 58.3493 23.2192 57.1373 22.2537 56.272V56.2726Z" fill="white"/>
<path d="M34.0888 65.6216C34.9307 65.3498 35.6484 64.9046 36.2432 64.3354C35.674 65.053 34.9064 65.7207 33.9409 66.2893C32.9755 66.8578 32.0343 67.0811 31.0688 67.0069C29.9548 67.0318 29.385 66.2151 29.1129 65.5474C29.0137 65.3498 28.9394 65.053 28.9151 64.6322L28.8409 63.6427V57.3353C28.8409 56.5434 28.4945 56.0241 27.9989 55.8515C27.5284 55.6538 27.3056 55.6289 27.0828 55.6289H30.7718V62.6041C30.7718 63.0243 30.8211 64.0386 30.9203 64.3603C31.0688 64.8797 31.3659 65.5973 32.01 65.6958C32.5548 65.9183 33.2482 65.8934 34.0895 65.6216H34.0888ZM36.3917 57.2368C36.3917 56.5192 36.0697 55.9999 35.5748 55.8272C35.1042 55.6539 34.9064 55.6296 34.6836 55.6296H38.3233V64.3361C38.3233 65.2263 38.9174 65.2263 39.1652 65.2263H39.2645L36.3924 67.0811V57.2368H36.3917Z" fill="white"/>
<path d="M44.3401 65.0775C44.3401 65.8443 44.7114 66.3636 45.2313 66.5612C45.8004 66.7346 45.9989 66.7589 46.271 66.7589H40.4775C40.7496 66.7589 40.9724 66.7339 41.493 66.5612C42.0621 66.3636 42.4091 65.8443 42.4091 65.0775V52.2899C42.4091 50.8803 41.6165 50.8803 41.3694 50.9545L44.3407 49.0498V65.0775H44.3401Z" fill="white"/>
<path d="M56.4713 51.4C56.4713 51.8944 56.0507 52.4144 55.4808 52.4144C54.6882 52.4144 54.3419 51.6475 54.4654 50.7323C54.5647 49.7179 53.9699 49.2235 53.1529 49.2235C52.3853 49.2235 51.9147 49.5945 51.6919 50.4605C51.4691 51.2766 51.4198 52.0185 51.4198 53.3788V55.6295H54.7868L54.564 55.852H51.4198V64.9787C51.4198 65.7948 51.8161 66.364 52.336 66.5617C52.9051 66.735 53.1036 66.7593 53.3757 66.7593H47.5823C47.7801 66.7593 47.9043 66.7593 48.3249 66.6358C48.8941 66.4625 49.4889 66.0423 49.4889 64.9787V55.852H48.2014L47.9043 55.6295H49.4889V53.3788C49.4889 49.5695 52.2617 48.7292 54.4411 49.2485C55.5058 49.5203 56.4713 50.213 56.4713 51.4007V51.4Z" fill="white"/>
<path d="M61.8444 65.6216C62.6863 65.3498 63.404 64.9046 63.9988 64.3354C63.4296 65.053 62.662 65.7207 61.6965 66.2893C60.7311 66.8578 59.7899 67.0811 58.8245 67.0069C57.7105 67.0318 57.1406 66.2151 56.8686 65.5474C56.7693 65.3498 56.695 65.053 56.6707 64.6322L56.5965 63.6427V57.3353C56.5965 56.5434 56.2501 56.0241 55.7546 55.8515C55.284 55.6538 55.0612 55.6289 54.8384 55.6289H58.5274V62.6041C58.5274 63.0243 58.5767 64.0386 58.6759 64.3603C58.8245 64.8797 59.1215 65.5973 59.7656 65.6958C60.3105 65.9183 61.0038 65.8934 61.8451 65.6216H61.8444ZM64.1473 57.2368C64.1473 56.5192 63.8253 55.9999 63.3304 55.8272C62.8598 55.6539 62.662 55.6296 62.4392 55.6296H66.0789V64.3361C66.0789 65.2263 66.6731 65.2263 66.9208 65.2263H67.0201L64.148 67.0811V57.2368H64.1473Z" fill="white"/>
<path d="M72.0947 65.0775C72.0947 65.8443 72.466 66.3636 72.9859 66.5612C73.555 66.7346 73.7535 66.7589 74.0256 66.7589H68.2322C68.5043 66.7589 68.7271 66.7339 69.2476 66.5612C69.8168 66.3636 70.1638 65.8443 70.1638 65.0775V52.2899C70.1638 50.8803 69.3712 50.8803 69.1241 50.9545L72.0954 49.0498V65.0775H72.0947Z" fill="white"/>
<path d="M102.178 64.5583C102.178 65.5227 102.598 66.1662 103.193 66.438C103.787 66.7098 104.134 66.7597 104.407 66.7597H97.5977C97.8697 66.7597 98.2168 66.7105 98.7859 66.438C99.3551 66.1655 99.7764 65.5227 99.7764 64.5583V53.6753C99.7764 52.7109 99.6771 52.2158 99.4793 52.1915C99.3308 52.1915 99.1329 52.5133 98.8602 53.1317L98.7366 53.3792L92.9182 67.0079L85.6145 53.0083C84.9461 51.7963 84.5497 52.0688 84.5497 53.4285L84.5248 63.3712C84.5248 64.6325 85.0197 65.6219 85.5152 66.0427C85.7873 66.2653 86.0844 66.4137 86.4064 66.5378C87.0998 66.7604 87.2726 66.7604 87.4461 66.7604H81.5042C81.6777 66.7604 81.9005 66.7604 82.5196 66.5378C83.3365 66.1911 84.2777 65.3258 84.2777 63.322V53.181C84.2777 50.0893 82.2968 49.4459 81.9005 49.4459L81.8012 49.4209H86.4564L92.7454 61.4666C93.6615 63.1487 94.1071 63.2472 94.8498 61.5657L100.099 49.4465H104.259C104.135 49.4465 102.179 49.57 102.179 51.7464V64.5583H102.178Z" fill="white"/>
<path d="M112.255 65.5975C114.31 65.6717 115.746 64.9048 116.563 63.2477C116.34 64.3113 115.77 65.2266 114.855 65.9684C113.939 66.6854 112.85 67.057 111.587 67.0321C110.027 67.0071 108.689 66.4386 107.625 65.3749C106.56 64.2864 106.015 62.8768 105.991 61.1704C105.942 58.8206 106.857 57.0893 108.764 55.9765C109.729 55.358 110.868 55.0862 112.156 55.1604C113.443 55.2346 114.483 55.7539 115.3 56.6941C116.117 57.6093 116.488 58.8213 116.464 60.3051H107.873C107.873 61.8388 108.269 63.1 109.061 64.0645C109.878 65.0289 110.942 65.5483 112.255 65.5982V65.5975ZM109.631 56.025C108.541 56.8168 107.947 58.1765 107.873 60.1061C110.324 60.1061 111.784 60.0812 112.304 60.007C113.369 59.9078 114.062 59.636 114.409 59.1659C114.904 58.5225 115.052 56.9153 113.84 55.9751C112.75 55.0599 110.918 55.1091 109.631 56.0243V56.025Z" fill="white"/>
<path d="M129.958 64.9043C129.686 65.8195 129.265 66.9573 127.829 66.9573C126.69 66.9573 126.121 66.2896 126.121 64.9292V60.1555C124.511 60.6505 123.546 60.9965 122.481 61.59C121.416 62.1586 120.896 62.8762 120.822 63.7665C120.748 64.8793 121.441 65.8688 122.803 65.943C123.843 66.0171 124.907 65.6212 126.021 64.7559C125.353 65.4486 125.179 65.6462 124.412 66.2397C123.644 66.8083 122.778 67.0558 121.787 67.0558C120.748 67.0558 119.98 66.759 119.51 66.1655C119.039 65.572 118.841 64.9043 118.89 64.1867C118.915 63.519 119.237 62.9497 119.559 62.5545C119.93 62.1343 120.698 61.7135 121.193 61.4417C121.713 61.1699 122.901 60.8232 123.496 60.6505L124.808 60.3045L126.121 59.9336V58.5483C126.121 56.1985 125.007 55.1848 123.348 55.4815C122.085 55.7041 121.119 56.4217 121.119 57.6088C121.119 57.9305 121.441 58.5483 121.465 58.87C121.54 60.2553 119.187 60.4779 119.262 58.7466C119.287 57.9305 119.707 57.1886 120.574 56.5451C121.441 55.9024 122.382 55.4815 123.397 55.2839C124.685 55.0364 125.799 55.1605 126.715 55.6798C127.655 56.1992 128.101 57.1886 128.076 58.6973V64.7573C128.076 65.4 128.25 65.7716 128.596 65.8458C128.968 65.92 129.265 65.7716 129.538 65.3757C129.711 65.3508 129.86 65.2024 129.958 64.9056V64.9043Z" fill="white"/>
<path d="M134.39 65.0775C134.39 65.8444 134.737 66.3637 135.207 66.5613C135.703 66.7346 135.926 66.7589 136.148 66.7589H130.726C130.949 66.7589 131.147 66.734 131.642 66.5613C132.137 66.3637 132.459 65.8444 132.459 65.0775V58.1523C132.459 56.9652 131.568 56.9895 131.42 57.0637L134.391 55.1348V65.0775H134.39ZM141.818 65.0775C141.818 65.8444 142.165 66.3637 142.635 66.5613C143.13 66.7346 143.354 66.7589 143.576 66.7589H138.129C138.352 66.7589 138.55 66.734 139.045 66.5613C139.54 66.3637 139.862 65.8444 139.862 65.0775V60.4771C139.862 59.9085 139.862 59.5126 139.837 59.2651C139.837 58.9933 139.812 58.6716 139.763 58.3006C139.664 57.237 139.367 56.9153 138.599 56.5693C138.079 56.3717 137.411 56.421 136.618 56.6928C135.851 56.9646 135.133 57.3854 134.514 57.954C135.801 56.4452 137.658 55.1098 139.54 55.2825C140.456 55.3816 141.149 55.7768 141.397 56.4452C141.62 56.9645 141.743 57.1622 141.768 57.954C141.793 58.3249 141.818 58.6217 141.818 58.795V65.0775H141.818Z" fill="white"/>
<path d="M148.652 65.0775C148.652 65.8693 148.974 66.3637 149.444 66.5613C149.939 66.7347 150.162 66.7589 150.385 66.7589H144.889C145.161 66.7589 145.359 66.734 145.854 66.5613C146.374 66.3637 146.721 65.8687 146.721 65.0775V58.2265C146.721 57.237 146.226 56.891 145.705 57.0145L148.652 55.1348V65.0775ZM147.563 51.252C148.231 51.252 148.801 51.7962 148.801 52.4889C148.801 53.1816 148.232 53.7259 147.563 53.7259C146.893 53.7259 146.349 53.1573 146.349 52.4889C146.349 51.8205 146.894 51.252 147.563 51.252Z" fill="white"/>
<path d="M155.56 65.0775C155.56 65.8444 155.906 66.3637 156.377 66.5613C156.872 66.7346 157.095 66.7589 157.318 66.7589H151.896C152.119 66.7589 152.316 66.734 152.812 66.5613C153.307 66.3637 153.629 65.8444 153.629 65.0775V58.1523C153.629 56.9652 152.738 56.9895 152.589 57.0637L155.56 55.1348V65.0775H155.56ZM162.988 65.0775C162.988 65.8444 163.334 66.3637 163.805 66.5613C164.3 66.7346 164.523 66.7589 164.746 66.7589H159.299C159.522 66.7589 159.719 66.734 160.215 66.5613C160.71 66.3637 161.032 65.8444 161.032 65.0775V60.4771C161.032 59.9085 161.032 59.5126 161.007 59.2651C161.007 58.9933 160.982 58.6716 160.933 58.3006C160.833 57.237 160.536 56.9153 159.769 56.5693C159.249 56.3717 158.58 56.421 157.788 56.6928C157.02 56.9646 156.302 57.3854 155.683 57.954C156.971 56.4452 158.828 55.1098 160.709 55.2825C161.625 55.3816 162.319 55.7768 162.566 56.4452C162.789 56.9645 162.913 57.1622 162.938 57.954C162.963 58.3249 162.987 58.6217 162.987 58.795V65.0775H162.988Z" fill="white"/>
<path d="M176.506 67.4522C177.174 69.0844 176.332 70.6181 175.59 71.4092C174.327 72.7203 172.594 73.2889 170.34 73.1156C167.369 72.918 165.71 71.4834 165.71 69.6779C165.71 68.5893 166.304 67.5999 166.8 67.2047L167.146 66.9329C166.429 68.3182 166.552 69.4803 167.468 70.4454C168.409 71.4099 169.771 71.9542 171.529 72.0776C172.791 72.1767 173.881 71.9784 174.797 71.4591C175.713 70.9641 176.134 70.3213 176.06 69.5052C176.159 68.0214 174.475 67.1062 171.875 67.1305C168.78 67.1555 167.022 66.7596 166.725 65.2758C166.502 64.3605 167.171 63.5444 168.681 62.8767L168.557 62.8275C167.196 62.209 166.304 60.7745 166.379 59.0931C166.404 57.4359 167.344 56.2732 169.201 55.5562C170.563 55.0369 172.371 55.136 173.535 55.7538C174.351 56.174 174.946 56.8667 175.268 57.8318C175.614 58.7963 175.614 59.6866 175.293 60.5276C174.797 61.7146 174.054 62.4323 172.569 62.9266C171.356 63.3225 170.143 63.3475 168.954 62.9759C168.063 63.4952 167.84 64.0644 168.261 64.633C168.484 65.004 168.905 65.1773 169.523 65.2758L170.365 65.3499C170.861 65.3499 171.851 65.325 172.173 65.325C174.748 65.4241 175.936 66.0419 176.506 67.4522ZM172.396 62.7526C174.129 62.1342 174.055 59.3642 173.461 57.8305C172.545 55.4065 170.935 55.1097 169.573 55.654C168.88 55.9258 168.434 56.5443 168.212 57.4845C168.014 58.3997 168.088 59.3891 168.459 60.4528C169.326 62.6292 170.911 63.2477 172.396 62.7526ZM176.333 56.0499C175.937 55.7282 175.54 55.4564 174.699 56.1983C175.393 55.3822 176.061 54.9863 176.729 54.9863C177.943 54.9863 177.596 56.6927 176.333 56.0499Z" fill="white"/>
<path d="M186.237 58.6711C185.271 56.7664 183.538 55.4802 181.854 55.5052C180.69 55.5301 180.022 56.0495 179.898 57.0139C179.775 57.7558 179.873 59.1162 182.894 59.908C185.94 60.7241 186.979 61.7627 186.979 63.4199C187.004 65.3987 185.617 67.0309 182.869 67.0309C181.879 67.0309 180.938 66.8083 180.294 66.6599C180.12 66.6107 179.898 66.5365 179.651 66.4374L178.709 65.9673L178.363 65.7696L178.314 62.4554C178.982 63.9399 179.799 65.0028 180.814 65.6462C182.671 66.8582 185.494 67.0315 185.742 65.1761C186.014 63.8158 185.073 62.7029 182.275 61.9111C179.577 61.1443 178.611 60.0807 178.611 58.5227C178.636 56.6679 180.147 55.1592 182.82 55.1592C184.231 55.1592 185.37 55.5052 186.237 56.2228V58.6717L186.237 58.6711Z" fill="white"/>
</svg>
