<svg width="32" height="32" viewBox="0 0 32 32" fill="none" xmlns="http://www.w3.org/2000/svg">
<g clip-path="url(#clip0_2001_63)">
<path d="M11.6364 13.0908C12.4398 13.0908 13.091 12.4395 13.091 11.6362C13.091 10.8329 12.4398 10.1816 11.6364 10.1816C10.8331 10.1816 10.1819 10.8329 10.1819 11.6362C10.1819 12.4395 10.8331 13.0908 11.6364 13.0908Z" fill="white"/>
<path d="M13.0909 13.8184H10.1819V21.8184H13.0909V13.8184Z" fill="white"/>
<path d="M16 0C7.16344 0 0 7.16344 0 16C0 24.8366 7.16344 32 16 32C24.8366 32 32 24.8366 32 16C32 7.16344 24.8366 0 16 0ZM16 30.5454C7.96675 30.5454 1.45456 24.0332 1.45456 16C1.45456 7.96675 7.96675 1.45456 16 1.45456C24.0332 1.45456 30.5454 7.96675 30.5454 16C30.5454 24.0332 24.0332 30.5454 16 30.5454Z" fill="white"/>
<path d="M19.8981 13.8184C17.7163 13.8184 17.4545 15.1129 17.4545 15.1129V13.8184H14.5454V21.8184H17.4545V17.4547C17.4545 17.4547 17.4545 16.0002 18.6908 16.0002C19.4181 16.0002 19.6363 16.6474 19.6363 17.4547V21.8184H22.5453V17.4547C22.5453 15.1784 21.5563 13.8184 19.8981 13.8184Z" fill="white"/>
</g>
<defs>
<clipPath id="clip0_2001_63">
<rect width="32" height="32" fill="white"/>
</clipPath>
</defs>
</svg>
