<svg width="322" height="78" viewBox="0 0 322 78" fill="none" xmlns="http://www.w3.org/2000/svg">
<path d="M89.9134 29.3266C89.5257 28.326 88.6536 27.197 87.3287 25.9702C86.1975 24.8728 84.9061 24.1626 83.3873 23.8405C81.8686 23.5175 80.5762 23.6795 79.446 24.3245C78.1862 25.099 77.6048 26.6804 77.8629 28.2618C78.218 30.4883 80.0917 31.9412 83.4516 32.6505C89.6218 33.9415 91.8514 36.2648 91.3669 40.4925C91.2057 42.5905 90.3653 44.1068 88.8791 45.1074C87.393 46.0754 85.6161 46.5594 83.5811 46.5594C80.06 46.5269 77.2489 45.6882 75.117 44.1068L75.0527 37.9747C75.7311 39.8465 76.797 41.4922 78.2514 42.88C79.7376 44.2678 81.3532 45.1716 83.1301 45.5914C84.8744 45.946 86.3931 45.8818 87.6854 45.3335C89.0104 44.7844 89.6887 43.7196 89.753 42.1707C89.8173 40.8154 89.3328 39.6212 88.2669 38.5881C87.2009 37.5558 85.2303 36.7163 82.3223 36.0386C79.7702 35.4253 78.0259 34.554 77.0886 33.4249C76.1521 32.2633 75.6993 30.8429 75.7962 29.1321C75.8606 27.3246 76.6041 25.8725 78.0576 24.8077C79.5112 23.7103 81.3532 23.162 83.582 23.1937C85.876 23.1937 88.1691 23.8713 89.1707 24.3879L89.8816 24.7751L89.9142 29.3257L89.9134 29.3266Z" fill="#D8D8D8"/>
<path d="M98.0542 45.5268C96.4069 44.7849 95.0176 43.0741 94.4679 40.6532C94.016 38.4584 94.3067 36.4897 95.3075 34.7473C96.3091 32.9722 97.827 31.8423 99.8628 31.294C102.285 30.6806 104.386 30.9068 106.195 32.0359C108.004 33.165 109.07 35.0368 109.361 37.6514C109.619 40.0398 109.07 42.0727 107.681 43.7509C106.325 45.3965 104.579 46.3003 102.448 46.3971C101.058 46.4297 99.7342 46.2035 98.0542 45.5259V45.5268ZM104.063 32.424C102.803 31.2949 101.382 31.0036 99.7985 31.617C98.9264 31.94 98.2481 32.5525 97.7635 33.4888C96.7619 35.3281 96.7945 37.6197 97.2147 40.0398C97.6349 42.202 98.4427 43.7509 99.573 44.6872C100.736 45.6227 101.964 46.0425 103.224 45.9457C104.29 45.8489 105.097 45.3323 105.711 44.4285C106.971 42.5892 106.971 39.9747 106.551 37.1022C106.163 35.1336 105.323 33.5522 104.063 32.4231V32.424Z" fill="#D8D8D8"/>
<path d="M119.506 44.6235C120.605 44.2689 121.541 43.688 122.317 42.9453C121.574 43.8816 120.573 44.7529 119.313 45.4947C118.053 46.2366 116.825 46.5279 115.566 46.4311C114.112 46.4637 113.369 45.3979 113.014 44.5267C112.884 44.2689 112.787 43.8817 112.755 43.3325L112.658 42.0415V33.8114C112.658 32.7783 112.207 32.1006 111.56 31.8754C110.946 31.6175 110.655 31.585 110.365 31.585H115.178V40.6863C115.178 41.2345 115.242 42.5581 115.372 42.9779C115.566 43.6555 115.953 44.5918 116.794 44.7203C117.505 45.0107 118.409 44.9782 119.507 44.6235H119.506ZM122.511 33.6829C122.511 32.7466 122.091 32.069 121.445 31.8437C120.831 31.6175 120.573 31.5858 120.282 31.5858H125.031V42.9462C125.031 44.1078 125.807 44.1078 126.13 44.1078H126.259L122.512 46.5279V33.6829H122.511Z" fill="#D8D8D8"/>
<path d="M132.881 43.9131C132.881 44.9137 133.366 45.5913 134.044 45.8492C134.787 46.0753 135.046 46.107 135.401 46.107H127.842C128.197 46.107 128.487 46.0744 129.166 45.8492C129.909 45.5913 130.362 44.9137 130.362 43.9131V27.2277C130.362 25.3884 129.328 25.3884 129.005 25.4852L132.882 23V43.9131H132.881Z" fill="#D8D8D8"/>
<path d="M148.711 26.067C148.711 26.712 148.162 27.3905 147.419 27.3905C146.384 27.3905 145.933 26.3899 146.094 25.1957C146.223 23.8721 145.447 23.2271 144.381 23.2271C143.38 23.2271 142.766 23.7111 142.475 24.8411C142.184 25.9059 142.12 26.8739 142.12 28.649V31.5856H146.513L146.222 31.876H142.12V43.7846C142.12 44.8495 142.637 45.5922 143.315 45.8501C144.058 46.0762 144.317 46.1079 144.672 46.1079H137.113C137.371 46.1079 137.533 46.1079 138.082 45.9469C138.824 45.7207 139.6 45.1725 139.6 43.7846V31.876H137.92L137.533 31.5856H139.6V28.649C139.6 23.6785 143.218 22.582 146.062 23.2596C147.451 23.6143 148.711 24.5181 148.711 26.0678V26.067Z" fill="#D8D8D8"/>
<path d="M155.722 44.6235C156.82 44.2689 157.757 43.688 158.533 42.9453C157.79 43.8816 156.788 44.7529 155.529 45.4947C154.269 46.2366 153.041 46.5279 151.781 46.4311C150.328 46.4637 149.584 45.3979 149.229 44.5267C149.1 44.2689 149.003 43.8817 148.971 43.3325L148.874 42.0415V33.8114C148.874 32.7783 148.422 32.1006 147.776 31.8754C147.162 31.6175 146.871 31.585 146.58 31.585H151.394V40.6863C151.394 41.2345 151.458 42.5581 151.587 42.9779C151.781 43.6555 152.169 44.5918 153.009 44.7203C153.72 45.0107 154.625 44.9782 155.722 44.6235H155.722ZM158.727 33.6829C158.727 32.7466 158.306 32.069 157.661 31.8437C157.047 31.6175 156.788 31.5858 156.498 31.5858H161.247V42.9462C161.247 44.1078 162.022 44.1078 162.345 44.1078H162.475L158.727 46.5279V33.6829H158.727Z" fill="#D8D8D8"/>
<path d="M169.097 43.9131C169.097 44.9137 169.581 45.5913 170.26 45.8492C171.002 46.0753 171.261 46.107 171.616 46.107H164.057C164.412 46.107 164.703 46.0744 165.382 45.8492C166.124 45.5913 166.577 44.9137 166.577 43.9131V27.2277C166.577 25.3884 165.543 25.3884 165.221 25.4852L169.098 23V43.9131H169.097Z" fill="#D8D8D8"/>
<path d="M208.349 43.2358C208.349 44.4943 208.898 45.3338 209.674 45.6885C210.449 46.0431 210.902 46.1083 211.257 46.1083H202.373C202.728 46.1083 203.18 46.044 203.923 45.6885C204.666 45.3329 205.215 44.4943 205.215 43.2358V29.0356C205.215 27.7772 205.086 27.1312 204.828 27.0995C204.634 27.0995 204.376 27.5193 204.02 28.3263L203.859 28.6493L196.267 46.4321L186.737 28.1653C185.865 26.5838 185.347 26.9394 185.347 28.7135L185.315 41.687C185.315 43.3326 185.961 44.6236 186.607 45.1728C186.962 45.4632 187.35 45.6568 187.77 45.8187C188.675 46.1091 188.9 46.1091 189.127 46.1091H181.374C181.6 46.1091 181.891 46.1091 182.698 45.8187C183.764 45.3664 184.992 44.2373 184.992 41.6227V28.3906C184.992 24.3565 182.408 23.5169 181.891 23.5169L181.761 23.4844H187.835L196.041 39.2017C197.237 41.3965 197.818 41.525 198.787 39.3311L205.636 23.5178H211.064C210.903 23.5178 208.35 23.6789 208.35 26.5187V43.2358H208.349Z" fill="#D8D8D8"/>
<path d="M221.498 44.5911C224.179 44.6879 226.053 43.6873 227.119 41.5251C226.828 42.9129 226.085 44.1071 224.89 45.0751C223.695 46.0106 222.274 46.4955 220.626 46.4629C218.591 46.4304 216.846 45.6885 215.456 44.3007C214.067 42.8803 213.356 41.0411 213.324 38.8146C213.26 35.7485 214.455 33.4895 216.942 32.0374C218.202 31.2305 219.688 30.8758 221.368 30.9726C223.048 31.0694 224.405 31.747 225.471 32.9738C226.537 34.168 227.021 35.7494 226.99 37.6855H215.78C215.78 39.6867 216.297 41.3323 217.33 42.5908C218.396 43.8492 219.785 44.5269 221.498 44.592V44.5911ZM218.074 32.1008C216.652 33.134 215.877 34.9081 215.78 37.4259C218.978 37.4259 220.884 37.3933 221.562 37.2965C222.951 37.1672 223.856 36.8125 224.308 36.1991C224.954 35.3596 225.148 33.2624 223.565 32.0357C222.144 30.8415 219.754 30.9057 218.074 32.0999V32.1008Z" fill="#D8D8D8"/>
<path d="M244.597 43.6876C244.242 44.8818 243.692 46.3664 241.819 46.3664C240.332 46.3664 239.59 45.4952 239.59 43.7202V37.4913C237.49 38.1372 236.23 38.5887 234.841 39.3631C233.451 40.105 232.773 41.0414 232.676 42.203C232.579 43.6551 233.484 44.9461 235.261 45.0429C236.618 45.1397 238.007 44.6231 239.46 43.494C238.588 44.3978 238.362 44.6556 237.36 45.4301C236.359 46.1719 235.228 46.4949 233.936 46.4949C232.579 46.4949 231.578 46.1077 230.964 45.3333C230.35 44.5589 230.092 43.6876 230.156 42.7513C230.188 41.88 230.608 41.1373 231.028 40.6216C231.512 40.0733 232.514 39.5242 233.16 39.1695C233.838 38.8149 235.389 38.3625 236.165 38.1373L237.877 37.6858L239.59 37.2018V35.3942C239.59 32.3281 238.136 31.0055 235.972 31.3927C234.324 31.6831 233.064 32.6194 233.064 34.1683C233.064 34.5881 233.484 35.3942 233.516 35.814C233.613 37.6215 230.543 37.912 230.64 35.6529C230.673 34.5881 231.222 33.62 232.353 32.7805C233.484 31.9418 234.711 31.3927 236.036 31.1348C237.716 30.8119 239.17 30.9738 240.365 31.6514C241.592 32.329 242.175 33.62 242.142 35.5887V43.4958C242.142 44.3344 242.368 44.8193 242.82 44.9161C243.305 45.0129 243.692 44.8193 244.048 44.3028C244.275 44.2702 244.469 44.0766 244.597 43.6894V43.6876Z" fill="#D8D8D8"/>
<path d="M250.38 43.9129C250.38 44.9135 250.832 45.5911 251.446 45.849C252.093 46.0751 252.384 46.1068 252.674 46.1068H245.6C245.89 46.1068 246.148 46.0742 246.795 45.849C247.441 45.5911 247.861 44.9135 247.861 43.9129V34.8767C247.861 33.3279 246.698 33.3596 246.504 33.4564L250.381 30.9395V43.9129H250.38ZM260.073 43.9129C260.073 44.9135 260.525 45.5911 261.139 45.849C261.784 46.0751 262.076 46.1068 262.367 46.1068H255.259C255.55 46.1068 255.808 46.0742 256.455 45.849C257.1 45.5911 257.521 44.9135 257.521 43.9129V37.9102C257.521 37.1683 257.521 36.6517 257.488 36.3288C257.488 35.9741 257.455 35.5543 257.391 35.0703C257.262 33.6825 256.874 33.2627 255.872 32.8113C255.194 32.5534 254.322 32.6177 253.288 32.9723C252.286 33.327 251.35 33.8761 250.542 34.618C252.222 32.6494 254.644 30.9069 257.099 31.1322C258.295 31.2615 259.2 31.7772 259.523 32.6494C259.814 33.327 259.975 33.5848 260.007 34.618C260.04 35.102 260.072 35.4892 260.072 35.7154V43.9129H260.073Z" fill="#D8D8D8"/>
<path d="M268.989 43.9128C268.989 44.946 269.409 45.5911 270.023 45.8489C270.669 46.0751 270.96 46.1068 271.251 46.1068H264.079C264.434 46.1068 264.693 46.0742 265.339 45.8489C266.017 45.5911 266.469 44.9451 266.469 43.9128V34.9735C266.469 33.6825 265.823 33.231 265.144 33.392L268.989 30.9394V43.9128ZM267.568 25.873C268.44 25.873 269.183 26.5832 269.183 27.487C269.183 28.3908 268.441 29.101 267.568 29.101C266.695 29.101 265.985 28.3591 265.985 27.487C265.985 26.6149 266.696 25.873 267.568 25.873Z" fill="#D8D8D8"/>
<path d="M278.003 43.9129C278.003 44.9135 278.454 45.5911 279.068 45.849C279.715 46.0751 280.006 46.1068 280.297 46.1068H273.222C273.512 46.1068 273.771 46.0742 274.417 45.849C275.063 45.5911 275.483 44.9135 275.483 43.9129V34.8767C275.483 33.3279 274.32 33.3596 274.126 33.4564L278.003 30.9395V43.9129H278.003ZM287.695 43.9129C287.695 44.9135 288.147 45.5911 288.761 45.849C289.406 46.0751 289.698 46.1068 289.989 46.1068H282.881C283.172 46.1068 283.43 46.0742 284.077 45.849C284.722 45.5911 285.143 44.9135 285.143 43.9129V37.9102C285.143 37.1683 285.143 36.6517 285.11 36.3288C285.11 35.9741 285.077 35.5543 285.013 35.0703C284.884 33.6825 284.496 33.2627 283.494 32.8113C282.816 32.5534 281.944 32.6177 280.91 32.9723C279.908 33.327 278.972 33.8761 278.164 34.618C279.844 32.6494 282.266 30.9069 284.722 31.1322C285.917 31.2615 286.822 31.7772 287.145 32.6494C287.436 33.327 287.597 33.5848 287.629 34.618C287.662 35.102 287.694 35.4892 287.694 35.7154V43.9129H287.695Z" fill="#D8D8D8"/>
<path d="M305.334 47.0117C306.206 49.1414 305.107 51.1426 304.138 52.1749C302.491 53.8857 300.229 54.6275 297.289 54.4014C293.412 54.1435 291.247 52.2717 291.247 49.9158C291.247 48.4955 292.023 47.2045 292.669 46.6888L293.121 46.3341C292.185 48.1417 292.346 49.658 293.541 50.9173C294.769 52.1758 296.546 52.8859 298.839 53.047C300.487 53.1764 301.908 52.9176 303.104 52.24C304.299 51.5941 304.848 50.7554 304.751 49.6906C304.881 47.7545 302.684 46.5603 299.291 46.592C295.253 46.6245 292.959 46.1079 292.571 44.1719C292.281 42.9777 293.153 41.9128 295.123 41.0416L294.962 40.9774C293.185 40.1704 292.023 38.2985 292.119 36.1046C292.152 33.9424 293.379 32.4252 295.803 31.4897C297.58 30.8121 299.938 30.9415 301.457 31.7476C302.523 32.2958 303.298 33.1996 303.718 34.4589C304.17 35.7174 304.17 36.879 303.751 37.9764C303.104 39.5253 302.135 40.4617 300.197 41.1067C298.614 41.6233 297.031 41.6559 295.48 41.171C294.317 41.8486 294.027 42.5913 294.576 43.3332C294.866 43.8172 295.416 44.0434 296.223 44.1719L297.321 44.2687C297.968 44.2687 299.26 44.2361 299.68 44.2361C303.04 44.3655 304.59 45.1716 305.334 47.0117ZM299.971 40.8797C302.233 40.0727 302.136 36.4584 301.361 34.4572C300.165 31.2943 298.065 30.9071 296.288 31.6173C295.383 31.972 294.802 32.779 294.511 34.0057C294.253 35.1999 294.35 36.491 294.835 37.8788C295.966 40.7186 298.033 41.5256 299.971 40.8797ZM305.108 32.1339C304.591 31.7141 304.074 31.3595 302.976 32.3275C303.881 31.2627 304.753 30.7461 305.625 30.7461C307.208 30.7461 306.755 32.9726 305.108 32.1339Z" fill="#D8D8D8"/>
<path d="M318.031 35.555C316.771 33.0698 314.51 31.3916 312.313 31.4241C310.794 31.4567 309.922 32.1343 309.76 33.3927C309.599 34.3608 309.728 36.1358 313.669 37.169C317.643 38.2338 319 39.5891 319 41.7513C319.032 44.3333 317.223 46.463 313.637 46.463C312.344 46.463 311.117 46.1726 310.277 45.979C310.05 45.9147 309.76 45.8179 309.437 45.6886L308.209 45.0752L307.757 44.8173L307.693 40.4929C308.565 42.4298 309.631 43.8168 310.956 44.6563C313.378 46.2377 317.062 46.4639 317.385 44.0429C317.74 42.2679 316.513 40.8158 312.862 39.7827C309.341 38.7821 308.081 37.3943 308.081 35.3614C308.114 32.9413 310.085 30.9727 313.573 30.9727C315.414 30.9727 316.9 31.4241 318.032 32.3605V35.5559L318.031 35.555Z" fill="#D8D8D8"/>
<path d="M58 74.5C58 75.3284 57.3284 76 56.5 76C55.6716 76 55 75.3284 55 74.5L55 2.5C55 1.67157 55.6716 1 56.5 1C57.3284 1 58 1.67157 58 2.5L58 74.5Z" fill="#D8D8D8"/>
<path d="M54 39C54 40.6569 52.6569 42 51 42C49.3431 42 48 40.6569 48 39C48 37.3431 49.3431 36 51 36C52.6569 36 54 37.3431 54 39Z" fill="#D9D9D9"/>
<path d="M39 39C39 40.6569 37.6569 42 36 42C34.3431 42 33 40.6569 33 39C33 37.3431 34.3431 36 36 36C37.6569 36 39 37.3431 39 39Z" fill="#D9D9D9"/>
<path d="M9 39C9 40.6569 7.65685 42 6 42C4.34315 42 3 40.6569 3 39C3 37.3431 4.34315 36 6 36C7.65685 36 9 37.3431 9 39Z" fill="#D9D9D9"/>
</svg>
