<svg width="307" height="74" viewBox="0 0 307 74" fill="none" xmlns="http://www.w3.org/2000/svg">
<g clip-path="url(#clip0_3001_1555)">
<path d="M24.8046 29.6698C24.4593 29.999 24.1712 30.365 23.9377 30.7549C24.1412 30.9379 24.3377 31.1271 24.5271 31.3225C24.9508 30.4398 25.6309 29.6689 26.5374 29.133C29.5388 27.358 33.0423 27.1776 36.063 28.3383C36.5132 28.1632 36.9757 28.0136 37.4461 27.8904C33.4008 25.7765 28.2922 26.3486 24.8046 29.6698Z" fill="white"/>
<path d="M28.9055 29.0417C27.1921 29.4562 25.8901 30.6865 25.3113 32.2186C25.5033 32.4633 25.6848 32.7141 25.8548 32.9719C26.5208 30.9435 28.4192 29.4676 30.6753 29.4421C31.6127 29.4316 32.5227 29.5398 33.393 29.751C33.7164 29.5275 34.052 29.3189 34.3973 29.1244C32.6601 28.6448 30.7811 28.5867 28.9055 29.0408V29.0417Z" fill="white"/>
<path d="M27.0723 44.9786C27.0406 44.7586 27.0106 44.5263 26.9833 44.2852C26.4803 44.4559 25.9429 44.5527 25.3827 44.5589C25.188 44.5606 24.9942 44.558 24.8012 44.55C24.3149 44.851 23.7723 45.0693 23.1926 45.1837C24.4533 45.3438 25.7632 45.2849 27.0714 44.9786H27.0723Z" fill="white"/>
<path d="M26.424 33.9469C26.5649 34.2223 26.6935 34.5031 26.8081 34.7891C26.8257 34.4283 26.9244 34.0657 27.1138 33.7295C27.1587 33.6494 27.2063 33.5711 27.2547 33.4937C27.4697 32.4825 27.7383 31.8806 28.0291 31.8806C28.1586 31.8806 28.2836 32.0003 28.4017 32.222C29.3496 31.474 30.5336 31.085 31.7325 31.1185C31.9633 30.8914 32.2038 30.6723 32.454 30.4629C29.8579 29.875 27.2186 31.379 26.4231 33.946L26.424 33.9469Z" fill="white"/>
<path d="M29.8762 43.2707C29.7044 43.0339 29.5538 42.7814 29.426 42.5156C29.3564 42.6071 29.2842 42.6969 29.2093 42.784C29.1803 43.2161 29.145 43.628 29.1045 44.017C29.389 43.7943 29.648 43.5452 29.8771 43.2716L29.8762 43.2707Z" fill="white"/>
<path d="M31.1158 44.46C30.9255 44.3333 30.745 44.1934 30.5749 44.042C30.2684 44.3553 29.916 44.6343 29.5204 44.8684C29.3337 44.9784 29.146 45.0822 28.9558 45.1799C28.9038 45.5169 28.8474 45.8267 28.7866 46.1039C29.6138 45.6701 30.397 45.1218 31.1158 44.4609V44.46Z" fill="white"/>
<path d="M18.3685 43.345C17.9227 42.7563 17.6091 42.0619 17.4691 41.3068C15.5407 39.3576 14.3373 36.6884 14.3047 33.7315C14.2959 32.9236 14.3285 32.1246 14.3999 31.3361C13.9012 30.7588 13.459 30.2457 13.311 29.7881C13.1516 32.1167 13.341 34.5095 13.9206 36.8988C14.5831 39.6295 16.2181 41.8709 18.3685 43.3441V43.345Z" fill="white"/>
<path d="M21.0624 24.744C20.0749 25.6848 19.3023 26.7655 18.7446 27.9253C19.0618 28.0125 19.3736 28.111 19.682 28.221C20.5849 26.314 22.0482 24.6472 24.0021 23.4917C35.1231 16.9144 49.4754 20.5876 56.0596 31.6971C53.9858 25.0159 48.4095 19.9716 41.5267 18.6868C34.384 17.3535 26.7242 19.3521 21.0633 24.7431L21.0624 24.744Z" fill="white"/>
<path d="M29.049 35.0114C29.0993 34.9762 29.1512 34.9428 29.2041 34.9111C29.2975 34.6664 29.4023 34.4262 29.5151 34.1895C29.3204 34.2625 29.1407 34.3593 28.9768 34.4746C29.0024 34.6462 29.0261 34.8257 29.049 35.0114Z" fill="white"/>
<path d="M26.8203 42.3154C26.7789 42.3366 26.7375 42.3568 26.6961 42.377C26.5155 42.7862 26.2803 43.1655 25.9993 43.5052C26.3023 43.4278 26.5965 43.3231 26.8784 43.1928C26.8564 42.9094 26.837 42.6164 26.8203 42.3154Z" fill="white"/>
<path d="M17.4999 39.3738C17.5863 38.9813 17.7202 38.6073 17.8946 38.257C17.6796 37.8936 17.4867 37.5187 17.3158 37.135C16.597 36.5603 16.1741 35.8572 16.2261 35.0326C16.2825 34.1358 15.9133 33.3341 15.4183 32.6143C15.3407 35.0687 16.0992 37.4412 17.499 39.3747L17.4999 39.3738Z" fill="white"/>
<path d="M28.7144 33.1108C28.7619 33.2974 28.8077 33.5016 28.85 33.7242C28.8579 33.7198 28.865 33.7145 28.8729 33.7101C29.2544 33.4848 29.6526 33.3141 30.0596 33.1962C30.256 32.8811 30.4701 32.5749 30.7 32.2783C30.0005 32.4094 29.3222 32.6858 28.7144 33.1108Z" fill="white"/>
<path d="M41.5487 31.4638C41.3654 31.6767 41.1769 31.8994 40.9954 32.13C41.1919 32.401 41.3778 32.6826 41.5513 32.9757C48.1355 44.0852 44.4584 58.4227 33.3374 65.0001C40.0255 62.9285 45.0751 57.3579 46.3613 50.4822C47.5866 43.9286 45.9965 36.9411 41.5487 31.4629V31.4638Z" fill="white"/>
<path d="M34.9963 49.2569C37.0507 47.3006 38.1783 44.7388 38.3659 42.1172C38.0831 42.874 37.6162 43.5402 37.0207 44.0638C36.2834 46.674 34.5787 49.0166 32.0575 50.5083C20.9365 57.0856 6.58416 53.4124 0 42.3029C2.07374 48.9841 7.6501 54.0284 14.5329 55.3133C21.6756 56.6465 29.3354 54.648 34.9963 49.2569Z" fill="white"/>
<path d="M35.1717 24.8452C30.2666 23.4055 25.1589 25.5519 22.6624 29.7497C22.8659 29.8905 23.0658 30.0357 23.2596 30.187C26.416 25.4929 32.7077 23.9406 37.7256 26.762C38.1854 27.0207 38.6312 27.2935 39.0664 27.5769C39.5703 27.5135 40.0795 27.4792 40.5922 27.4792C40.7657 27.4792 40.9287 27.4897 41.0829 27.5109C39.2884 26.3783 37.3089 25.4727 35.1709 24.8452H35.1717Z" fill="white"/>
<path d="M37.1573 57.8333C41.8844 52.3208 43.981 44.6944 42.139 37.1015C41.7831 35.6336 41.1462 34.3074 40.2987 33.166C40.1084 33.5163 39.9613 33.885 39.8855 34.2731C41.044 35.9874 41.7302 38.0476 41.7549 40.2705C41.8967 53.1797 31.536 63.7603 18.6125 63.902C25.4416 65.4491 32.6028 63.1469 37.1581 57.8342L37.1573 57.8333Z" fill="white"/>
<path d="M48.8834 27.8816C43.3652 23.1594 35.7309 21.0649 28.1301 22.9059C24.8407 23.7023 22.2622 25.9042 20.8765 28.7185C21.161 28.854 21.4403 28.9993 21.7134 29.1541C23.5263 25.7053 27.1285 23.3363 31.3015 23.2905C44.2241 23.1488 54.8156 33.4989 54.9575 46.4089C56.5062 39.5869 54.2016 32.4331 48.8834 27.8825V27.8816Z" fill="white"/>
<path d="M42.6419 28.5858C42.7467 28.8428 42.8022 29.142 42.8022 29.4817C42.8022 29.7343 42.6815 30.0053 42.4895 30.2966C49.9872 37.505 51.9817 49.117 46.6405 58.5976C51.3958 53.4635 52.9806 46.117 50.6532 39.5194C49.1318 35.2072 46.3604 31.3791 42.6419 28.585V28.5858Z" fill="white"/>
<path d="M25.5069 59.6009C32.3597 57.1878 37.9925 51.6313 40.1975 44.1352C40.9991 41.408 40.6899 38.6183 39.5324 36.251C39.3606 36.5449 39.121 36.816 38.8267 37.0641C40.0953 40.0756 40.0072 43.6195 38.2788 46.6864C31.9404 57.9367 17.6718 61.9242 6.40894 55.5923C11.5484 60.3427 18.9025 61.9259 25.5069 59.6009Z" fill="white"/>
<path d="M18.9014 16.1682C15.9247 19.639 13.9919 23.9485 13.4272 28.5599C13.688 27.9492 14.2465 27.5848 15.0755 27.5004C17.6937 17.5815 26.6801 10.2183 37.4461 10.1004C30.6171 8.55325 23.4559 10.8554 18.9005 16.1682H18.9014Z" fill="white"/>
<path d="M30.5511 14.3996C24.4277 16.5556 19.2803 21.2233 16.6807 27.5411C16.9864 27.5719 17.2894 27.6141 17.5898 27.667C17.6506 27.549 17.7131 27.4311 17.7792 27.3141C24.1176 16.0628 38.3862 12.0763 49.649 18.4081C44.5096 13.6577 37.1555 12.0745 30.5511 14.3996Z" fill="white"/>
<path d="M7.17518 46.1193C12.6934 50.8416 20.3277 52.9361 27.9284 51.0959C31.3104 50.2766 33.9417 47.9718 35.2966 45.0439C34.9205 45.1645 34.524 45.2402 34.1135 45.2657C32.2362 48.4866 28.7591 50.6682 24.757 50.7122C11.8345 50.8539 1.24292 40.5029 1.10108 27.5938C-0.447612 34.4158 1.85693 41.5695 7.17518 46.1202V46.1193Z" fill="white"/>
<path d="M15.7601 43.9602C18.8539 47.2022 23.463 48.1333 27.4255 46.7015C27.355 46.4691 27.289 46.1981 27.2282 45.8918C22.479 47.3897 17.1537 45.4897 14.5074 41.0244C7.92321 29.9149 11.6003 15.5774 22.7213 9C16.0332 11.0716 10.9836 16.6422 9.69742 23.5179C8.3628 30.6532 10.3634 38.3051 15.7601 43.9602Z" fill="white"/>
<path d="M20.8871 49.156C25.4222 50.4875 30.1309 48.7529 32.7878 45.1659C32.5006 45.1043 32.2231 45.019 31.957 44.909C28.6139 48.7336 22.9371 49.8283 18.3324 47.2393C7.07043 40.9074 3.07888 26.6536 9.41726 15.4023C4.66194 20.5365 3.07712 27.883 5.40457 34.4806C7.82011 41.3263 13.3824 46.9542 20.8862 49.156H20.8871Z" fill="white"/>
<path d="M77.9133 30.9165C77.5257 29.9159 76.6536 28.7868 75.3287 27.56C74.1975 26.4626 72.9061 25.7524 71.3873 25.4303C69.8686 25.1074 68.5762 25.2693 67.446 25.9144C66.1862 26.6888 65.6048 28.2702 65.8629 29.8516C66.218 32.0781 68.0917 33.531 71.4516 34.2404C77.6218 35.5314 79.8514 37.8547 79.3669 42.0823C79.2057 44.1803 78.3653 45.6966 76.8791 46.6972C75.393 47.6653 73.6161 48.1493 71.5811 48.1493C68.06 48.1167 65.2489 47.278 63.117 45.6966L63.0527 39.5645C63.7311 41.4364 64.797 43.082 66.2514 44.4699C67.7376 45.8577 69.3532 46.7615 71.1301 47.1812C72.8744 47.5359 74.3931 47.4717 75.6854 46.9234C77.0104 46.3743 77.6887 45.3094 77.753 43.7605C77.8173 42.4053 77.3328 41.2111 76.2669 40.1779C75.2009 39.1457 73.2303 38.3061 70.3223 37.6285C67.7702 37.0151 66.0259 36.1439 65.0886 35.0148C64.1521 33.8531 63.6993 32.4328 63.7962 30.722C63.8606 28.9144 64.6041 27.4623 66.0576 26.3975C67.5112 25.3001 69.3532 24.7518 71.582 24.7835C73.876 24.7835 76.1691 25.4612 77.1707 25.9777L77.8816 26.3649L77.9142 30.9156L77.9133 30.9165Z" fill="white"/>
<path d="M86.0542 47.1166C84.4069 46.3748 83.0176 44.664 82.4679 42.243C82.016 40.0482 82.3067 38.0796 83.3075 36.3371C84.3091 34.5621 85.827 33.4321 87.8628 32.8839C90.2854 32.2705 92.3856 32.4966 94.195 33.6257C96.0045 34.7548 97.0704 36.6266 97.3611 39.2412C97.6193 41.6296 97.0704 43.6625 95.6812 45.3407C94.3245 46.9864 92.5794 47.8902 90.4475 47.987C89.0583 48.0195 87.7342 47.7934 86.0542 47.1157V47.1166ZM92.0632 34.0138C90.8034 32.8847 89.3816 32.5934 87.7985 33.2068C86.9264 33.5298 86.2481 34.1423 85.7635 35.0787C84.7619 36.9179 84.7945 39.2095 85.2147 41.6296C85.6349 43.7919 86.4427 45.3407 87.573 46.2771C88.7358 47.2125 89.9639 47.6323 91.2236 47.5355C92.2896 47.4387 93.0974 46.9221 93.7114 46.0183C94.9711 44.1791 94.9711 41.5645 94.5509 38.6921C94.1633 36.7234 93.3229 35.142 92.0632 34.013V34.0138Z" fill="white"/>
<path d="M107.506 46.2134C108.605 45.8587 109.541 45.2779 110.317 44.5351C109.574 45.4715 108.573 46.3427 107.313 47.0846C106.053 47.8265 104.825 48.1178 103.566 48.0209C102.112 48.0535 101.369 46.9878 101.014 46.1165C100.884 45.8587 100.787 45.4715 100.755 44.9224L100.658 43.6313V35.4013C100.658 34.3681 100.207 33.6905 99.5599 33.4652C98.9459 33.2073 98.6552 33.1748 98.3645 33.1748H103.178V42.2761C103.178 42.8244 103.242 44.1479 103.372 44.5677C103.566 45.2453 103.953 46.1817 104.794 46.3102C105.505 46.6006 106.409 46.568 107.507 46.2134H107.506ZM110.511 35.2728C110.511 34.3364 110.091 33.6588 109.445 33.4335C108.831 33.2074 108.573 33.1757 108.282 33.1757H113.031V44.536C113.031 45.6977 113.807 45.6977 114.13 45.6977H114.259L110.512 48.1177V35.2728H110.511Z" fill="white"/>
<path d="M120.881 45.5029C120.881 46.5035 121.366 47.1811 122.044 47.439C122.787 47.6652 123.046 47.6969 123.401 47.6969H115.842C116.197 47.6969 116.487 47.6643 117.166 47.439C117.909 47.1811 118.362 46.5035 118.362 45.5029V28.8175C118.362 26.9782 117.328 26.9783 117.005 27.0751L120.882 24.5898V45.5029H120.881Z" fill="white"/>
<path d="M136.711 27.6568C136.711 28.3019 136.162 28.9804 135.419 28.9804C134.384 28.9804 133.933 27.9798 134.094 26.7856C134.223 25.462 133.447 24.8169 132.381 24.8169C131.38 24.8169 130.766 25.3009 130.475 26.4309C130.184 27.4957 130.12 28.4638 130.12 30.2388V33.1755H134.513L134.222 33.4659H130.12V45.3745C130.12 46.4393 130.637 47.1821 131.315 47.4399C132.058 47.6661 132.317 47.6978 132.672 47.6978H125.113C125.371 47.6978 125.533 47.6978 126.082 47.5367C126.824 47.3106 127.6 46.7623 127.6 45.3745V33.4659H125.92L125.533 33.1755H127.6V30.2388C127.6 25.2684 131.218 24.1719 134.062 24.8495C135.451 25.2041 136.711 26.1079 136.711 27.6577V27.6568Z" fill="white"/>
<path d="M143.722 46.2134C144.82 45.8587 145.757 45.2779 146.533 44.5351C145.79 45.4715 144.788 46.3427 143.529 47.0846C142.269 47.8265 141.041 48.1178 139.781 48.0209C138.328 48.0535 137.584 46.9878 137.229 46.1165C137.1 45.8587 137.003 45.4715 136.971 44.9224L136.874 43.6313V35.4013C136.874 34.3681 136.422 33.6905 135.776 33.4652C135.162 33.2073 134.871 33.1748 134.58 33.1748H139.394V42.2761C139.394 42.8244 139.458 44.1479 139.587 44.5677C139.781 45.2453 140.169 46.1817 141.009 46.3102C141.72 46.6006 142.625 46.568 143.722 46.2134H143.722ZM146.727 35.2728C146.727 34.3364 146.306 33.6588 145.661 33.4335C145.047 33.2074 144.788 33.1757 144.498 33.1757H149.247V44.536C149.247 45.6977 150.022 45.6977 150.345 45.6977H150.475L146.727 48.1177V35.2728H146.727Z" fill="white"/>
<path d="M157.097 45.5029C157.097 46.5035 157.581 47.1811 158.26 47.439C159.002 47.6652 159.261 47.6969 159.616 47.6969H152.057C152.412 47.6969 152.703 47.6643 153.382 47.439C154.124 47.1811 154.577 46.5035 154.577 45.5029V28.8175C154.577 26.9782 153.543 26.9783 153.221 27.0751L157.098 24.5898V45.5029H157.097Z" fill="white"/>
<path d="M196.349 44.8257C196.349 46.0841 196.898 46.9237 197.674 47.2783C198.449 47.633 198.902 47.6981 199.257 47.6981H190.373C190.728 47.6981 191.18 47.6339 191.923 47.2783C192.666 46.9228 193.215 46.0841 193.215 44.8257V30.6255C193.215 29.367 193.086 28.7211 192.828 28.6894C192.634 28.6894 192.376 29.1092 192.02 29.9162L191.859 30.2391L184.267 48.0219L174.737 29.7551C173.865 28.1737 173.347 28.5292 173.347 30.3034L173.315 43.2768C173.315 44.9225 173.961 46.2135 174.607 46.7626C174.962 47.053 175.35 47.2466 175.77 47.4086C176.675 47.699 176.9 47.699 177.127 47.699H169.374C169.6 47.699 169.891 47.699 170.698 47.4086C171.764 46.9562 172.992 45.8271 172.992 43.2126V29.9804C172.992 25.9463 170.408 25.1068 169.891 25.1068L169.761 25.0742H175.835L184.041 40.7916C185.237 42.9864 185.818 43.1149 186.787 40.921L193.636 25.1077H199.064C198.903 25.1077 196.35 25.2687 196.35 28.1086V44.8257H196.349Z" fill="white"/>
<path d="M209.498 46.1809C212.179 46.2777 214.053 45.2772 215.119 43.1149C214.828 44.5027 214.085 45.6969 212.89 46.665C211.695 47.6004 210.274 48.0853 208.626 48.0528C206.591 48.0202 204.846 47.2784 203.456 45.8906C202.067 44.4702 201.356 42.6309 201.324 40.4044C201.26 37.3384 202.455 35.0793 204.942 33.6273C206.202 32.8203 207.688 32.4656 209.368 32.5624C211.048 32.6592 212.405 33.3369 213.471 34.5636C214.537 35.7578 215.021 37.3393 214.99 39.2753H203.78C203.78 41.2765 204.297 42.9222 205.33 44.1806C206.396 45.4391 207.785 46.1167 209.498 46.1818V46.1809ZM206.074 33.6906C204.652 34.7238 203.877 36.498 203.78 39.0157C206.978 39.0157 208.884 38.9832 209.562 38.8864C210.951 38.757 211.856 38.4023 212.308 37.789C212.954 36.9494 213.148 34.8523 211.565 33.6255C210.144 32.4313 207.754 32.4956 206.074 33.6898V33.6906Z" fill="white"/>
<path d="M232.597 45.2775C232.242 46.4717 231.692 47.9563 229.819 47.9563C228.332 47.9563 227.59 47.085 227.59 45.31V39.0811C225.49 39.7271 224.23 40.1785 222.841 40.953C221.451 41.6948 220.773 42.6312 220.676 43.7928C220.579 45.2449 221.484 46.5359 223.261 46.6327C224.618 46.7295 226.007 46.2129 227.46 45.0838C226.588 45.9876 226.362 46.2455 225.36 47.0199C224.359 47.7618 223.228 48.0848 221.936 48.0848C220.579 48.0848 219.578 47.6976 218.964 46.9231C218.35 46.1487 218.092 45.2775 218.156 44.3411C218.188 43.4699 218.608 42.7271 219.028 42.2114C219.512 41.6632 220.514 41.114 221.16 40.7594C221.838 40.4047 223.389 39.9524 224.165 39.7271L225.877 39.2756L227.59 38.7916V36.984C227.59 33.918 226.136 32.5953 223.972 32.9825C222.324 33.2729 221.064 34.2093 221.064 35.7581C221.064 36.1779 221.484 36.984 221.516 37.4038C221.613 39.2114 218.543 39.5018 218.64 37.2428C218.673 36.1779 219.222 35.2099 220.353 34.3703C221.484 33.5317 222.711 32.9825 224.036 32.7247C225.716 32.4017 227.17 32.5636 228.365 33.2413C229.592 33.9189 230.175 35.2099 230.142 37.1785V45.0856C230.142 45.9243 230.368 46.4092 230.82 46.506C231.305 46.6028 231.692 46.4092 232.048 45.8926C232.275 45.86 232.469 45.6664 232.597 45.2792V45.2775Z" fill="white"/>
<path d="M238.38 45.5027C238.38 46.5033 238.832 47.181 239.446 47.4388C240.093 47.665 240.384 47.6967 240.674 47.6967H233.6C233.89 47.6967 234.148 47.6641 234.795 47.4388C235.441 47.181 235.861 46.5033 235.861 45.5027V36.4666C235.861 34.9177 234.698 34.9494 234.504 35.0462L238.381 32.5293V45.5027H238.38ZM248.073 45.5027C248.073 46.5033 248.525 47.181 249.139 47.4388C249.784 47.665 250.076 47.6967 250.367 47.6967H243.259C243.55 47.6967 243.808 47.6641 244.455 47.4388C245.1 47.181 245.521 46.5033 245.521 45.5027V39.5C245.521 38.7582 245.521 38.2416 245.488 37.9186C245.488 37.564 245.455 37.1442 245.391 36.6602C245.262 35.2724 244.874 34.8526 243.872 34.4011C243.194 34.1433 242.322 34.2075 241.288 34.5622C240.286 34.9168 239.35 35.466 238.542 36.2078C240.222 34.2392 242.644 32.4967 245.099 32.722C246.295 32.8514 247.2 33.3671 247.523 34.2392C247.814 34.9168 247.975 35.1747 248.007 36.2078C248.04 36.6919 248.072 37.0791 248.072 37.3052V45.5027H248.073Z" fill="white"/>
<path d="M256.989 45.5027C256.989 46.5358 257.409 47.1809 258.023 47.4387C258.669 47.6649 258.96 47.6966 259.251 47.6966H252.079C252.434 47.6966 252.693 47.664 253.339 47.4387C254.017 47.1809 254.469 46.535 254.469 45.5027V36.5633C254.469 35.2723 253.823 34.8208 253.144 34.9819L256.989 32.5292V45.5027ZM255.568 27.4629C256.44 27.4629 257.183 28.1731 257.183 29.0769C257.183 29.9807 256.441 30.6909 255.568 30.6909C254.695 30.6909 253.985 29.949 253.985 29.0769C253.985 28.2048 254.696 27.4629 255.568 27.4629Z" fill="white"/>
<path d="M266.003 45.5027C266.003 46.5033 266.454 47.181 267.068 47.4388C267.715 47.665 268.006 47.6967 268.297 47.6967H261.222C261.512 47.6967 261.771 47.6641 262.417 47.4388C263.063 47.181 263.483 46.5033 263.483 45.5027V36.4666C263.483 34.9177 262.32 34.9494 262.126 35.0462L266.003 32.5293V45.5027H266.003ZM275.695 45.5027C275.695 46.5033 276.147 47.181 276.761 47.4388C277.406 47.665 277.698 47.6967 277.989 47.6967H270.881C271.172 47.6967 271.43 47.6641 272.077 47.4388C272.722 47.181 273.143 46.5033 273.143 45.5027V39.5C273.143 38.7582 273.143 38.2416 273.11 37.9186C273.11 37.564 273.077 37.1442 273.013 36.6602C272.884 35.2724 272.496 34.8526 271.494 34.4011C270.816 34.1433 269.944 34.2075 268.91 34.5622C267.908 34.9168 266.972 35.466 266.164 36.2078C267.844 34.2392 270.266 32.4967 272.722 32.722C273.917 32.8514 274.822 33.3671 275.145 34.2392C275.436 34.9168 275.597 35.1747 275.629 36.2078C275.662 36.6919 275.694 37.0791 275.694 37.3052V45.5027H275.695Z" fill="white"/>
<path d="M293.334 48.6016C294.206 50.7312 293.107 52.7325 292.138 53.7647C290.491 55.4755 288.229 56.2174 285.289 55.9912C281.412 55.7334 279.247 53.8615 279.247 51.5057C279.247 50.0853 280.023 48.7943 280.669 48.2786L281.121 47.9239C280.185 49.7315 280.346 51.2478 281.541 52.5072C282.769 53.7656 284.546 54.4758 286.839 54.6368C288.487 54.7662 289.908 54.5075 291.104 53.8299C292.299 53.1839 292.848 52.3452 292.751 51.2804C292.881 49.3443 290.684 48.1501 287.291 48.1818C283.253 48.2144 280.959 47.6978 280.571 45.7617C280.281 44.5675 281.153 43.5027 283.123 42.6314L282.962 42.5672C281.185 41.7602 280.023 39.8884 280.119 37.6944C280.152 35.5322 281.379 34.015 283.803 33.0796C285.58 32.4019 287.938 32.5313 289.457 33.3374C290.523 33.8857 291.298 34.7895 291.718 36.0488C292.17 37.3072 292.17 38.4689 291.751 39.5663C291.104 41.1151 290.135 42.0515 288.197 42.6966C286.614 43.2131 285.031 43.2457 283.48 42.7608C282.317 43.4384 282.027 44.1812 282.576 44.923C282.866 45.4071 283.416 45.6332 284.223 45.7617L285.321 45.8585C285.968 45.8585 287.26 45.826 287.68 45.826C291.04 45.9553 292.59 46.7614 293.334 48.6016ZM287.971 42.4695C290.233 41.6625 290.136 38.0482 289.361 36.047C288.165 32.8842 286.065 32.497 284.288 33.2072C283.383 33.5618 282.802 34.3688 282.511 35.5956C282.253 36.7898 282.35 38.0808 282.835 39.4686C283.966 42.3085 286.033 43.1154 287.971 42.4695ZM293.108 33.7238C292.591 33.304 292.074 32.9493 290.976 33.9174C291.881 32.8525 292.753 32.3359 293.625 32.3359C295.208 32.3359 294.755 34.5624 293.108 33.7238Z" fill="white"/>
<path d="M306.031 37.1448C304.771 34.6596 302.51 32.9814 300.313 33.014C298.794 33.0465 297.922 33.7241 297.76 34.9826C297.599 35.9506 297.728 37.7257 301.669 38.7588C305.643 39.8237 307 41.1789 307 43.3412C307.032 45.9232 305.223 48.0528 301.637 48.0528C300.344 48.0528 299.117 47.7624 298.277 47.5688C298.05 47.5046 297.76 47.4078 297.437 47.2784L296.209 46.665L295.757 46.4072L295.693 42.0827C296.565 44.0197 297.631 45.4066 298.956 46.2461C301.378 47.8276 305.062 48.0537 305.385 45.6327C305.74 43.8577 304.513 42.4057 300.862 41.3725C297.341 40.3719 296.081 38.9841 296.081 36.9512C296.114 34.5311 298.085 32.5625 301.573 32.5625C303.414 32.5625 304.9 33.014 306.032 33.9503V37.1457L306.031 37.1448Z" fill="white"/>
</g>
<defs>
<clipPath id="clip0_3001_1555">
<rect width="307" height="74" fill="white"/>
</clipPath>
</defs>
</svg>
