<svg width="56" height="56" viewBox="0 0 56 56" fill="none" xmlns="http://www.w3.org/2000/svg">
<g clip-path="url(#clip0_1381_18002)">
<path d="M54.0606 26.76C52.0394 25.0959 49.055 25.1694 47.1189 26.9342L40.5433 32.926C39.6071 31.6414 38.1241 30.8587 36.4822 30.8587H29.5212C28.6439 30.8587 27.7947 30.7083 26.9977 30.4128C25.032 29.6842 21.1537 28.7009 17.2455 30.3146C16.5014 30.6222 15.7591 31.0817 15.0385 31.6831L8.23136 37.3696C7.17327 36.7464 5.78968 36.8792 4.88274 37.7868L1.77201 40.8971C0.693568 41.9746 0.692803 43.7218 1.77201 44.8001L12.1567 55.1853C13.2312 56.2606 14.9829 56.2605 16.0598 55.1853L19.1701 52.0741C20.2464 50.9977 20.2464 49.2474 19.1701 48.171L19.0601 48.0611L19.8214 47.2997C21.2374 45.8841 23.1432 45.1384 25.0614 45.2682C29.9235 45.5856 39.6824 45.2935 43.1264 41.847L54.2513 30.722C55.3679 29.6064 55.2808 27.7663 54.0606 26.76ZM17.9333 50.8373L14.8233 53.9476C14.4287 54.3414 13.7871 54.3406 13.3932 53.9485L3.00882 43.5633C3.00882 43.5633 3.00882 43.5633 3.00838 43.5624C2.61572 43.1715 2.61212 42.5317 3.00882 42.1341L6.11955 39.0238C6.51505 38.6292 7.15358 38.6296 7.54876 39.0238C7.86879 39.3438 18.1046 49.5797 17.9331 49.4082C18.328 49.8037 18.3283 50.4412 17.9333 50.8373ZM53.0145 29.4851L41.8896 40.6101C38.8922 43.6074 29.3421 43.7937 25.1752 43.5222C22.7593 43.371 20.3563 44.291 18.5846 46.0627L17.8232 46.8241C6.52708 35.4472 10.4231 39.3712 9.58029 38.5223L16.1597 33.026C16.7431 32.5391 17.3331 32.1709 17.9131 31.9317C21.2682 30.5469 24.6634 31.4132 26.3886 32.053C27.3813 32.4212 28.4354 32.6083 29.5212 32.6083H36.4822C38.3168 32.6083 39.7598 34.1017 39.7455 35.8887C39.7416 36.4371 39.2838 36.8839 38.7251 36.8839H23.0797C22.5966 36.8839 22.2049 37.2751 22.2049 37.7587C22.2049 38.2422 22.5966 38.6334 23.0797 38.6334H38.7249C40.2416 38.6334 41.4841 37.4076 41.4948 35.9016C41.4982 35.4496 41.4419 35.0063 41.3274 34.5784L48.2969 28.2278C49.5932 27.0447 51.5921 26.9952 52.9482 28.1125C53.3744 28.4627 53.4012 29.0977 53.0145 29.4851Z" fill="white"/>
<path d="M28.0831 17.7871C28.3855 18.081 28.523 18.5047 28.4517 18.9207L27.9892 21.6176C27.5664 24.0822 30.1554 25.984 32.3881 24.809L34.8027 23.5362C35.1773 23.3398 35.6236 23.3398 35.9974 23.5362L38.4034 24.8074C40.6245 25.9819 43.2252 24.0951 42.8054 21.6227L42.3467 18.919C42.2767 18.5038 42.4142 18.0818 42.7153 17.7879L44.6634 15.8881C46.4595 14.1362 45.4677 11.0831 42.9852 10.7215L40.2841 10.3277C39.8673 10.2662 39.5071 10.0048 39.321 9.62634L38.1139 7.17886C37.0028 4.92496 33.7927 4.92857 32.6817 7.17459L31.4667 9.62896C31.28 10.0057 30.9204 10.2663 30.5045 10.3269L27.8076 10.7207C25.3239 11.0824 24.3329 14.1397 26.1328 15.8898L28.0831 17.7871ZM28.0605 12.4515L30.7565 12.0576C31.7409 11.915 32.5926 11.2974 33.0343 10.4047L34.249 7.95039C34.7192 7.0009 36.0743 6.99981 36.5444 7.9529L37.7514 10.4004C38.1918 11.2947 39.0443 11.9141 40.0315 12.0585L42.7326 12.4524C43.7833 12.6072 44.203 13.8935 43.4417 14.6358L41.4939 16.5357C40.7814 17.2302 40.4552 18.2305 40.6218 19.2112L41.0805 21.9149C41.2583 22.964 40.1625 23.755 39.2208 23.2612L36.8143 21.9901C35.9297 21.522 34.8721 21.5211 33.9867 21.9883L31.5722 23.2611C30.6296 23.758 29.5335 22.96 29.7138 21.9131L30.1763 19.2162C30.3451 18.2313 30.0183 17.2283 29.3024 16.533L27.3526 14.6357C26.5897 13.8928 27.0089 12.6063 28.0605 12.4515Z" fill="white"/>
<path d="M35.3963 3.01835C35.8794 3.01835 36.271 2.62712 36.271 2.14357V0.88357C36.271 0.400023 35.8794 0.00878906 35.3963 0.00878906C34.9132 0.00878906 34.5215 0.400023 34.5215 0.88357V2.14357C34.5215 2.62712 34.9132 3.01835 35.3963 3.01835Z" fill="white"/>
<path d="M28.0463 4.34642C28.2898 4.76904 28.8276 4.90554 29.2411 4.66678C29.6596 4.42506 29.8027 3.89022 29.561 3.47164L28.931 2.38073C28.6897 1.96128 28.1536 1.81778 27.7363 2.06037C27.3177 2.30209 27.1746 2.83693 27.4163 3.25551L28.0463 4.34642Z" fill="white"/>
<path d="M22.4512 8.86358L23.5421 9.49314C23.9613 9.73442 24.496 9.59026 24.7372 9.17278C24.9785 8.7542 24.835 8.21947 24.4168 7.97764L23.3259 7.34808C22.906 7.10548 22.3717 7.25073 22.1308 7.66844C21.8895 8.08701 22.033 8.62175 22.4512 8.86358Z" fill="white"/>
<path d="M20.9529 16.2007H22.2125C22.6956 16.2007 23.0873 15.8095 23.0873 15.326C23.0873 14.8424 22.6956 14.4512 22.2125 14.4512H20.9529C20.4698 14.4512 20.0781 14.8424 20.0781 15.326C20.0781 15.8095 20.4698 16.2007 20.9529 16.2007Z" fill="white"/>
<path d="M47.7051 15.3269C47.7051 15.8105 48.0968 16.2017 48.5799 16.2017H49.8394C50.3225 16.2017 50.7142 15.8105 50.7142 15.3269C50.7142 14.8434 50.3225 14.4521 49.8394 14.4521H48.5799C48.0968 14.4521 47.7051 14.8434 47.7051 15.3269Z" fill="white"/>
<path d="M47.2517 9.49314L48.3426 8.86358C48.7608 8.62186 48.9043 8.08701 48.663 7.66844C48.4208 7.25073 47.8864 7.10548 47.4678 7.34808L46.3769 7.97764C45.9588 8.21936 45.8153 8.7542 46.0566 9.17278C46.2988 9.59092 46.833 9.7342 47.2517 9.49314Z" fill="white"/>
<path d="M41.5508 4.66678C41.9649 4.90598 42.5023 4.76839 42.7455 4.34642L43.3755 3.25551C43.6172 2.83693 43.4741 2.3022 43.0556 2.06037C42.637 1.81778 42.1018 1.96128 41.8609 2.38073L41.2308 3.47164C40.989 3.89033 41.1322 4.42506 41.5508 4.66678Z" fill="white"/>
</g>
<defs>
<clipPath id="clip0_1381_18002">
<rect width="56" height="56" fill="white"/>
</clipPath>
</defs>
</svg>
