<svg width="56" height="56" viewBox="0 0 56 56" fill="none" xmlns="http://www.w3.org/2000/svg">
<path fill-rule="evenodd" clip-rule="evenodd" d="M23.2598 11.8763C22.9712 11.5871 22.9712 11.1191 23.2598 10.8305C23.5484 10.5425 24.0171 10.5425 24.3057 10.8318L26.7135 13.2389L31.5185 8.86915C31.8214 8.59553 32.2881 8.61715 32.563 8.91955C32.8372 9.22127 32.8157 9.68854 32.5133 9.96339L27.1853 14.8071C26.8938 15.0725 26.4466 15.0624 26.1663 14.7822L23.2598 11.8763ZM13.0156 17.1801C14.7997 15.3974 16.6668 16.7324 17.6217 17.6879C17.911 17.9752 18.379 17.9752 18.6676 17.6879C19.3613 16.9942 20.1113 16.5368 20.8149 16.3731L24.0878 19.6461C24.0001 20.2653 23.7175 20.8366 23.2737 21.279L18.1453 26.4086L13.0157 21.279C11.886 20.1493 11.886 18.3103 13.0156 17.1801ZM18.4391 9.91556C18.4391 11.199 18.9345 12.4025 19.8344 13.3023L27.9 21.3666L35.9642 13.3023C37.828 11.44 37.8282 8.39326 35.9642 6.5307C33.5282 4.09649 30.7235 5.00996 28.4222 7.30104C28.1327 7.58932 27.6641 7.58809 27.3764 7.30104C25.0846 5.01422 22.2709 4.09347 19.8344 6.5307C18.9345 7.43062 18.4391 8.63283 18.4391 9.91556ZM39.9262 17.7743C39.5492 16.1951 38.7868 14.7409 37.7037 13.521C37.4975 13.8128 37.2672 14.0897 37.0099 14.3468L28.7245 22.6316C28.2691 23.0875 27.5288 23.087 27.074 22.6316L25.2893 20.8475C25.0713 21.396 24.7442 21.8987 24.3193 22.3247L20.9914 25.652C21.422 26.8779 22.0497 27.7691 22.7107 28.7077C24.0452 30.5992 25.5549 32.7398 25.6872 37.9408C27.4837 39.7752 29.1945 40.6718 30.7723 40.6057C32.2226 40.5454 33.667 39.6639 35.0682 37.9827V33.9263C35.0682 33.518 35.3987 33.1868 35.8077 33.1868C36.9865 33.1868 40.1104 33.3144 40.9538 33.196L40.9571 27.3269C40.9571 26.7575 41.3426 26.4531 43.459 25.4505L40.3713 20.6304C40.0925 20.1958 39.9577 19.7325 39.9577 19.2174C39.9577 18.809 40.0014 18.0919 39.9262 17.7743ZM17.4227 27.7764C17.822 28.1757 18.4663 28.1772 18.8665 27.7764L19.8508 26.7927C20.3219 27.8851 20.9201 28.7332 21.5039 29.5605C22.7997 31.3968 24.14 33.2975 24.2146 38.2576C24.2179 38.4429 24.2899 38.6202 24.4181 38.7543C26.5777 41.0229 28.7037 42.1651 30.8338 42.0835C32.7847 42.0023 34.6526 40.8669 36.3842 38.7079C36.4883 38.5769 36.5465 38.414 36.5465 38.2457V34.679C36.595 34.6797 36.644 34.681 36.695 34.6822C40.7854 34.7718 41.326 34.7025 41.6531 34.5101C42.1498 34.2208 42.4352 33.7346 42.4352 33.1783V27.6363C42.781 27.4183 43.4972 27.0665 44.5262 26.5819C45.1031 26.3103 45.3089 25.5977 44.9653 25.0617L41.6158 19.8332C41.403 19.5011 41.4322 19.2447 41.4418 18.8685C41.4535 18.3941 41.466 17.858 41.3646 17.4313C40.8888 15.4365 39.8796 13.6178 38.4359 12.1381C39.299 9.84321 38.7623 7.23742 37.0098 5.48484C34.1873 2.66211 30.7248 3.24943 27.8998 5.76305C25.073 3.25044 21.6114 2.66031 18.7884 5.48484C16.3498 7.92487 16.349 11.9084 18.7884 14.3475L19.6511 15.2095C19.1392 15.4339 18.6328 15.752 18.1451 16.1624C16.0515 14.4032 13.7321 14.3744 11.971 16.1343C10.2641 17.8418 10.2641 20.6179 11.971 22.3248L17.4227 27.7764ZM28.0053 50.9128C17.9469 50.9128 8.96974 44.1726 6.17511 34.5213C5.95067 33.7451 6.14431 33.5789 6.36227 33.4611C6.89561 33.2929 7.34652 33.4454 8.01875 34.6162C8.22684 35.0239 8.43303 35.4447 8.63195 35.8531C9.35838 37.3361 10.109 38.8715 11.1228 40.1653C12.1542 41.4828 13.4193 42.9879 14.9867 44.1608C16.702 45.4454 18.6484 46.7113 21.2473 47.263C22.1021 47.4444 22.7223 46.3715 22.1047 45.6982C21.2639 44.7818 20.5906 44.2626 19.7454 43.5071C18.7755 42.6379 17.9587 41.5444 17.2492 40.1654C17.0895 39.5168 17.1746 38.9782 17.4808 38.7165C17.7983 38.4469 18.3605 38.4534 18.9875 38.7355C20.1712 39.2679 22.2183 41.2402 23.4666 42.5229C24.6584 43.75 25.7846 44.9091 28.1669 46.1833C28.1774 46.1879 28.1871 46.1937 28.1977 46.1976C31.5459 47.7925 36.2874 47.5183 39.728 45.5313C42.6083 43.8684 45.8786 40.8801 48.505 38.009C44.7836 45.7707 36.8523 50.9128 28.0053 50.9128ZM50.9905 33.643C51.3065 33.7988 51.4683 34.1567 51.3766 34.4978C48.5382 45.0333 38.9275 52.3907 28.0053 52.3907C22.655 52.3907 17.5837 50.6799 13.3408 47.4436C9.23339 44.3108 6.18497 39.8676 4.75495 34.9323C4.37147 33.6057 4.69862 32.6607 5.72947 32.1227C5.76083 32.1057 5.79487 32.0919 5.82892 32.0801C7.86889 31.374 8.91665 33.2078 9.31067 33.8976L9.95926 35.2026C10.685 36.6837 11.3697 38.0822 12.2872 39.255C13.259 40.4958 14.4443 41.9081 15.8723 42.9768C17.0229 43.8395 18.1093 44.5581 19.3043 45.0868C19.1309 44.9363 18.9515 44.7793 18.7591 44.6078C17.6347 43.5999 16.6975 42.3427 15.8951 40.7648C15.8716 40.7197 15.8539 40.6719 15.8395 40.6228C15.4979 39.3571 15.7472 38.2523 16.5221 37.5913C17.2845 36.9422 18.4332 36.8649 19.5935 37.3871C21.1457 38.0848 23.5376 40.4725 24.5274 41.4932C25.6826 42.6816 26.6793 43.7092 28.8488 44.8714C31.7835 46.2596 35.9503 46.0062 38.989 44.2511C42.8307 42.0331 47.4289 37.3073 50.0762 33.8563C50.2909 33.5756 50.6737 33.4865 50.9905 33.643Z" fill="white"/>
</svg>
