<svg width="24" height="24" viewBox="0 0 24 24" fill="none" xmlns="http://www.w3.org/2000/svg">
<g clip-path="url(#clip0_800_13490)">
<path d="M0.158623 12.3842L5.61304 17.8386C5.80898 18.0674 6.15331 18.0941 6.3821 17.8981C6.6109 17.7022 6.63757 17.3578 6.44159 17.129C6.42331 17.1077 6.40343 17.0878 6.3821 17.0696L1.86039 12.5424H23.4546C23.7558 12.5424 24 12.2981 24 11.9969C24 11.6956 23.7558 11.4515 23.4546 11.4515H1.86039L6.3821 6.92974C6.6109 6.73381 6.63757 6.38947 6.44159 6.16068C6.24561 5.93188 5.90132 5.90521 5.67253 6.1012C5.6512 6.11948 5.63128 6.13935 5.61304 6.16068L0.158575 11.6151C-0.0528755 11.8278 -0.0528736 12.1714 0.158623 12.3842Z" fill="white"/>
</g>
<defs>
<clipPath id="clip0_800_13490">
<rect width="24" height="24" fill="white" transform="matrix(-1 0 0 -1 24 24)"/>
</clipPath>
</defs>
</svg>
