<svg width="49" height="49" viewBox="0 0 49 49" fill="none" xmlns="http://www.w3.org/2000/svg">
<g clip-path="url(#clip0_3001_3)">
<g clip-path="url(#clip1_3001_3)">
<path d="M38.8149 24.5518L32.4515 18.1883C32.2229 17.9213 31.8211 17.8902 31.5542 18.1189C31.2873 18.3475 31.2562 18.7492 31.4848 19.0161C31.5061 19.041 31.5293 19.0642 31.5542 19.0855L36.8295 24.3672H11.6363C11.2849 24.3672 11 24.6522 11 25.0036C11 25.3551 11.2849 25.64 11.6363 25.64H36.8295L31.5542 30.9153C31.2873 31.1439 31.2562 31.5456 31.4848 31.8125C31.7135 32.0795 32.1151 32.1106 32.3821 31.8819C32.4069 31.8606 32.4302 31.8374 32.4515 31.8125L38.815 25.449C39.0617 25.2009 39.0617 24.8 38.8149 24.5518Z" fill="#433041"/>
</g>
<circle cx="24.5" cy="24.5" r="24" stroke="#433041"/>
</g>
<defs>
<clipPath id="clip0_3001_3">
<rect width="49" height="49" fill="white"/>
</clipPath>
<clipPath id="clip1_3001_3">
<rect width="28" height="28" fill="white" transform="translate(11 11)"/>
</clipPath>
</defs>
</svg>
